<?xml version="1.0" encoding="UTF-8" standalone="no"?>
<!-- Created with Inkscape (http://www.inkscape.org/) -->

<svg
   width="34.881317mm"
   height="32.15247mm"
   viewBox="0 0 34.881317 32.15247"
   version="1.1"
   id="svg1"
   xmlns="http://www.w3.org/2000/svg"
   xmlns:svg="http://www.w3.org/2000/svg">
  <defs
     id="defs1" />
  <g
     id="layer1"
     transform="translate(-79.110413,-82.814584)">
    <g
       id="g1">
      <g
         id="elasticgaze"
         transform="matrix(0.26458333,0,0,0.26458333,75.481975,71.891395)">
        <path
           id="112"
           d="m 124.663,102.094 c -0.459,-0.53 -1.456,-1.68 -2.215,-2.556 -2.106,-2.432 -6.479,-6.751 -8.227,-8.127 -0.234,-0.185 -0.43,-0.49 -0.434,-0.679 -0.009,-0.431 -2.484,-2.509 -5.178,-4.348 -0.6,-0.41 -0.674,-0.512 -0.402,-0.553 0.184,-0.027 0.893,0.133 1.575,0.356 2.074,0.677 2.289,0.699 2.471,0.257 0.021,0.363 0.073,0.386 0.649,0.279 0.345,-0.063 0.906,-0.125 1.246,-0.136 0.482,-0.016 0.635,-0.096 1.01,0.058 0.115,0.006 0.564,0.069 0.998,0.14 0.526,0.087 0.813,0.07 0.864,-0.052 -0.039,0.538 1.33,0.132 1.396,0.57 0.745,-0.004 1.21,-0.185 1.224,-0.478 0.011,-0.229 0.029,-0.233 0.109,-0.022 0.13,0.341 0.391,0.497 1.332,0.054 0.066,0.255 0.186,0.287 0.729,0.195 0.368,-0.062 0.909,-0.024 1.245,0.087 0.808,0.267 2.249,0.07 2.265,-0.31 0.01,-0.253 0.021,-0.254 0.125,-0.006 0.128,0.306 1.069,0.29 1.172,-0.02 0.042,-0.129 0.127,-0.126 0.289,0.009 0.126,0.105 0.752,0.224 1.391,0.264 1.01,0.064 1.171,0.034 1.239,-0.226 1.516,0.966 1.516,-0.437 1.954,0.874 0.314,0.38 1.488,0.324 1.929,-0.091 0.235,-0.222 0.625,-0.356 1.097,-0.378 0.567,-0.026 0.758,-0.109 0.843,-0.369 0.107,-0.322 0.116,-0.32 0.229,0.042 0.096,0.306 0.24,0.377 0.767,0.377 0.53,0 0.648,-0.059 0.993,-0.355 -0.124,0.233 -0.027,0.271 0.697,0.271 1.03,0 1.385,-0.361 0.283,-1.54 -0.006,-0.259 -0.038,-0.678 -0.072,-0.931 0.622,-1.039 0.341,0.592 0.653,0.392 0.35,-0.33 0.453,-0.352 0.794,-0.17 0.839,0.448 2.133,1.511 2.877,2.363 0.882,1.012 2.109,3.255 2.109,3.858 0,0.221 0.087,0.489 0.193,0.596 0.282,0.283 0.186,3.434 -0.138,4.564 -0.443,1.543 -1.215,2.872 -2.354,4.055 -0.596,0.62 -1.131,1.113 -1.189,1.097 -0.057,-0.017 -0.471,0.187 -0.919,0.454 -1.7,1.011 -2.407,1.098 -8.902,1.098 0,0 -5.882,0 -5.882,0 0,0 -0.835,-0.963 -0.835,-0.963"
           stroke="#06aaba"
           fill="#06aaba"
           stroke-width="1" />
        <path
           id="path14"
           d="m 74.4,162.043 c -2.759,-0.193 -6.101,-0.639 -6.302,-0.841 -0.244,-0.245 0.987,-0.207 3.849,0.116 1.367,0.155 3.012,0.287 3.655,0.294 0,0 1.17,0.012 1.17,0.012 0.601,-0.888 0.601,-1.19 0.752,-1.257 0.095,0.298 0.131,0.104 0.126,-0.67 -0.006,-0.962 -0.021,-1.011 -0.126,-0.419 0,0 -0.12,0.67 -0.12,0.67 -0.08,-1.469 -1.143,-1.107 -1.408,-1.383 -0.317,-0.299 -0.667,-0.544 -0.778,-0.544 -0.347,0 -0.207,-0.239 0.342,-0.587 0.291,-0.184 0.574,-0.523 0.628,-0.754 0.04,-0.223 0.954,-0.949 0.913,-1.047 0.373,0.176 1.301,-0.658 1.155,-1.038 -0.071,-0.185 0.065,-0.331 0.461,-0.498 0.801,-0.633 1.557,-0.318 2.39,-1.103 0.307,0 0.928,-0.734 0.93,-1.1 0.003,-0.266 0.031,-0.28 0.159,-0.078 0.168,0.268 0.226,0.183 0.394,-0.582 -0.277,0.953 1.873,-1.098 1.903,-1.289 0.105,0.549 0.605,0.399 0.737,-0.221 -0.099,0.02 0.7,0.02 0.745,-0.082 0.038,0 0.08,-0.358 0.093,-0.796 0,0 0.024,-0.796 0.024,-0.796 0,0 0.12,0.671 0.12,0.671 0.066,0.368 0.13,0.545 0.143,0.392 0.013,-0.154 0.245,-0.466 1.073,-1.221 0.243,0.093 0.291,-0.002 0.307,-0.62 0.011,-0.401 0.009,-0.792 -0.004,-0.868 0.723,-1.778 0.723,-1.778 0.886,-1.491 -0.056,0.279 -0.02,0.646 0.078,0.817 0.277,0.384 1.136,-2.311 1.351,-1.11 0.179,-0.096 0.517,-0.191 0.752,-0.21 0.571,-0.758 0.571,-0.123 0.909,-0.192 0.137,-0.166 0.478,-0.273 0.868,-0.273 0.657,0 1.216,-0.404 1.411,-1.021 0.05,-0.16 0.461,-0.424 0.912,-0.587 0.652,-0.235 0.835,-0.385 0.979,-0.696 0.032,0.591 0.139,0.577 0.921,-0.13 0.464,-0.419 0.801,-0.583 1.201,-0.583 0.607,0 0.694,-0.086 1.098,-1.084 0.15,-0.368 0.413,-0.709 0.585,-0.756 0.743,-0.205 1.065,-0.576 1.751,-1.244 0.178,-0.227 0.719,-0.53 1.236,-0.693 0.612,-0.193 0.92,-0.381 1.479,-0.816 0.288,-0.442 1.764,-1.232 2.569,-1.375 0.6,-0.107 1.522,-0.734 1.647,-1.12 0.2,-0.622 0.968,-1.209 1.656,-1.266 0.887,-0.074 1.082,-0.267 1.106,-1.092 0.107,-0.936 0.314,0.949 0.608,-0.175 0.206,-0.263 0.375,-0.538 0.375,-0.612 0,-0.074 0.301,-0.304 0.668,-0.511 0.368,-0.207 0.668,-0.443 0.668,-0.524 0,-0.08 0.076,-0.099 0.169,-0.042 0.315,0.196 0.834,-0.098 0.836,-0.473 0.245,-1.571 0.251,0.406 0.301,0.389 0.21,0 0.699,-0.47 0.699,-0.67 0,-0.079 0.194,-0.373 0.43,-0.655 0.252,-0.3 0.379,-0.6 0.307,-0.725 -0.067,-0.117 -0.058,-0.154 0.02,-0.083 0.166,0.151 1.749,-1.357 1.749,-1.665 0,-0.114 0.264,-0.409 0.585,-0.655 0.322,-0.246 0.585,-0.542 0.585,-0.658 0,-0.116 0.113,-0.305 0.251,-0.419 0.137,-0.115 0.262,-0.445 0.371,-0.781 0.071,0.475 0.074,0.474 1.125,-0.618 0.823,-0.853 1.132,-1.073 1.409,-1.001 0.745,0.195 1.169,-0.751 0.52,-1.158 -0.392,-0.246 -0.426,-0.514 -0.101,-0.785 0.154,-0.725 0.287,-0.891 0.465,-1.139 0.032,-0.274 0.205,-0.535 0.428,-0.646 0.206,-0.102 0.512,-0.311 0.681,-0.464 0.289,-0.262 0.384,-0.195 1.808,1.272 0.938,0.967 1.781,2.036 2.243,2.846 0.42,0.734 0.853,1.297 1,1.299 0.567,0.004 0.66,0.369 0.66,2.597 0,1.97 -0.292,5.222 -0.588,6.542 -0.562,2.512 -1.79,5.346 -3.299,7.617 -1.246,1.875 -4.022,4.545 -6.305,6.064 -5.755,3.829 -16.438,10.17 -20.515,12.177 -2.719,1.338 -6.08,2.646 -6.358,2.473 -0.087,-0.053 -0.485,0.02 -0.885,0.163 -0.401,0.143 -1.029,0.329 -1.397,0.413 -0.367,0.084 -1.157,0.268 -1.754,0.408 -3.106,0.733 -9.834,1.086 -14.485,0.76 m 6.257,-1.971 c 0.114,-0.042 0.208,-0.326 0.208,-0.631 0,-0.545 -0.012,-0.554 -0.751,-0.554 -0.728,0 -0.753,0.017 -0.873,0.516 -0.058,-0.467 -0.133,-0.544 -0.53,-0.544 -0.381,0 -0.456,0.066 -0.421,0.377 0.023,0.207 0.048,0.513 0.055,0.679 0.012,0.261 0.156,0.297 1.058,0.268 0.575,-0.019 1.139,-0.069 1.254,-0.111 m 3.049,-0.682 c 0,-0.478 -0.011,-0.483 -1.058,-0.512 0,0 -1.058,-0.029 -1.058,-0.029 0,0 0.069,0.473 0.069,0.473 0.066,0.452 0.113,0.474 1.058,0.512 0.987,0.039 0.989,0.038 0.989,-0.444"
           stroke="#06aaba"
           fill="#06aaba"
           stroke-width="1" />
        <path
           id="path15"
           d="m 66.747,131.547 c -10.292,-0.066 -19.126,-0.168 -19.631,-0.226 -0.506,-0.058 -1.934,-0.187 -3.175,-0.285 -6.186,-0.493 -11.863,-2.046 -16.369,-4.48 -1.992,-1.075 -4.68,-2.986 -5.948,-4.227 -1.363,-1.336 -3.747,-4.91 -3.747,-5.621 0,-0.299 0.444,-0.328 0.548,-0.036 0.115,0.323 0.316,0.038 0.466,-0.663 0.114,-0.529 0.52,-1.725 1.242,-3.652 0.31,-0.827 2.111,-4.435 2.261,-4.528 0.091,-0.056 0.274,-0.362 0.406,-0.678 0.303,-0.727 0.632,-0.728 1.427,-0.008 0.937,0.85 4.778,2.658 7.518,3.54 3.585,1.154 3.787,1.21 5.513,1.515 1.815,0.321 1.835,0.324 4.137,0.587 0.943,0.109 1.756,0.264 1.806,0.346 0.051,0.081 0.335,0.148 0.633,0.148 0.298,0 0.613,0.066 0.7,0.146 0.246,0.225 1.394,0.355 1.508,0.17 0.066,-0.108 0.17,-0.108 0.299,0 0.109,0.091 0.422,0.14 0.696,0.109 0.273,-0.031 0.587,0.018 0.698,0.109 0.111,0.091 0.299,0.104 0.418,0.029 0.264,-0.166 0.807,-0.091 1.105,0.154 0.122,0.1 0.856,0.216 1.632,0.257 0.776,0.04 1.452,0.14 1.502,0.22 0.049,0.081 0.275,0.147 0.5,0.147 0.226,0 0.555,0.091 0.733,0.202 0.491,-0.099 1.667,-0.099 1.783,0.006 0.172,-0.088 0.857,-0.152 1.524,-0.143 0.867,0.013 1.211,-0.041 1.211,-0.191 0,-0.287 0.277,-0.265 0.39,0.031 0.073,0.19 0.354,0.225 1.313,0.164 1.519,-0.096 1.444,-0.097 4.035,0.007 1.269,0.051 2.272,0.018 3.259,-0.114 0.206,-0.17 0.864,-0.22 2.615,-0.201 1.469,0.016 2.424,-0.042 2.568,-0.156 0.126,-0.1 0.464,-0.193 0.752,-0.206 1.329,-0.06 3.345,-0.258 3.479,-0.341 0.294,0.17 0.99,0.081 1.151,0.024 0.466,0.149 5.149,0.194 5.377,0.052 0.107,-0.066 0.272,-0.06 0.367,0.014 0.193,0.15 1.426,0.038 1.427,-0.13 0,-0.059 0.959,-0.108 2.13,-0.108 2.043,0 3.047,-0.177 3.298,-0.584 0.057,-0.093 0.363,-0.17 0.679,-0.17 0.321,0 0.575,-0.085 0.575,-0.192 0,-0.137 0.364,-0.161 1.269,-0.084 1.806,0.153 3.246,0.929 5.001,2.697 1.516,1.527 2.109,2.577 2.497,4.425 0.703,3.354 -0.083,6.388 -2.272,8.764 -1.101,1.195 -2.752,2.285 -4.113,2.715 -1.159,0.366 -1.673,0.418 -4.888,0.488 -1.976,0.044 -12.013,0.025 -22.305,-0.042"
           stroke="#06aaba"
           fill="#06aaba"
           stroke-width="1" />
        <path
           id="107"
           d="m 129.742,123.009 c -0.06,-0.098 -0.237,-0.18 -0.392,-0.181 -0.177,-0.002 -0.595,-0.54 -1.118,-1.439 -0.54,-0.928 -1.486,-2.134 -2.674,-3.411 -2.128,-2.289 -2.841,-2.923 -3.15,-2.804 -0.155,0.059 -0.201,-0.028 -0.15,-0.292 0.077,-0.409 -0.005,-0.513 -1.207,-1.519 -0.441,-0.369 -0.923,-0.788 -1.071,-0.931 -1.894,-1.831 -6.319,-4.275 -10.461,-5.776 -1.916,-0.695 -6.679,-1.919 -7.477,-1.922 -0.161,-10e-4 -0.292,-0.108 -0.292,-0.238 0,-0.145 -0.241,-0.272 -0.627,-0.328 -0.344,-0.05 -1.19,-0.188 -1.879,-0.306 -1.201,-0.207 -1.222,-0.218 -0.501,-0.27 0.72,-0.051 1.396,-0.367 0.785,-0.367 -0.514,0 -0.297,-0.477 0.318,-0.7 0.222,-0.702 -1.059,-0.702 -0.613,-1.144 -0.539,0 -1.076,-0.228 -1.472,-0.626 -0.548,-0.271 -2.131,-0.297 -2.264,-0.275 -0.638,-0.332 -1.461,-1.099 -1.505,-1.405 -0.045,-0.307 -0.763,-0.456 -0.763,-0.158 0,0.094 -0.144,0.039 -0.321,-0.121 -0.177,-0.161 -0.63,-0.333 -1.006,-0.384 -0.456,-0.061 -0.886,-0.277 -1.285,-0.644 -0.33,-0.303 -0.692,-0.515 -0.804,-0.472 -0.431,-0.018 0.296,-0.987 -0.524,-0.997 -0.142,0.054 -0.348,-0.114 -0.527,-0.429 -0.162,-0.286 -0.407,-0.528 -1.395,-0.663 -0.305,-0.03 -0.315,-0.6 -0.016,-0.9 0.108,-0.109 0.197,-0.294 0.197,-0.41 0,-0.248 0.504,-0.543 1.072,-1.235 -0.851,-0.324 -0.914,-0.457 -0.515,-1.086 0.292,-0.458 0.472,-0.571 0.921,-0.577 0.308,-0.004 0.779,-0.164 1.047,-0.355 0.358,-0.256 0.62,-0.319 0.99,-0.237 0.377,0.082 0.575,0.031 0.855,-0.004 0.122,0.122 0.81,-0.11 0.81,-0.274 0.55,-0.053 0.416,-1.06 0.167,-1.052 0,-0.153 0.941,-0.111 1.395,0.062 0.336,0.128 0.502,0.081 0.888,-0.251 0.367,-0.317 0.592,-0.387 1,-0.31 0.386,0.073 0.567,0.026 0.678,-0.175 0.107,-0.19 0.455,-0.295 1.145,-0.344 0.546,-0.038 1.669,-0.123 2.496,-0.187 2.917,-0.228 6.43,-0.011 7.288,0.45 0.208,0.111 0.405,0.102 0.613,-0.028 0.254,-0.159 0.391,-0.114 0.796,0.262 0.269,0.25 0.735,0.557 1.036,0.683 0.301,0.127 0.591,0.346 0.646,0.488 0.054,0.142 0.466,0.459 0.916,0.704 0.45,0.246 0.818,0.51 0.818,0.587 0.347,0.553 0.789,-0.451 0.966,-0.077 0.494,0.311 0.49,0.308 1.958,1.593 1.568,1.373 5.394,5.249 6.914,7.004 0.759,0.876 1.756,2.026 2.215,2.556 0,0 0.835,0.963 0.835,0.963 0,0 5.844,0 5.844,0 6.543,0 7.249,-0.088 8.943,-1.111 0.515,-0.311 0.838,-0.446 0.718,-0.301 -0.301,0.363 -1.558,0.984 -2.652,1.31 -0.759,0.225 -1.866,0.27 -6.78,0.27 -3.23,0 -5.914,0.041 -5.964,0.091 -0.051,0.05 0.125,0.492 0.389,0.982 0.772,1.43 1.54,3.363 2.136,5.378 0.182,0.614 0.76,3.184 0.999,4.441 0.311,1.637 0.935,8.857 0.779,9.014 -0.032,0.031 -0.107,-0.023 -0.168,-0.122"
           stroke="#038a98"
           fill="#038a98"
           stroke-width="1" />
        <path
           id="path16"
           d="m 19.933,106.061 c -1.312,-0.176 -2.292,-0.742 -3.679,-2.124 -0.927,-0.924 -1.294,-1.194 -1.395,-1.029 -0.113,0.182 -0.154,0.178 -0.223,-0.023 -0.484,-1.407 -0.563,-4.857 -0.179,-7.799 0.226,-1.725 0.422,-2.596 1.546,-5.011 0.144,0.274 0.274,0.644 0.288,0.824 0.051,0.655 0.417,0.471 0.417,-0.21 0,-0.476 0.082,-0.698 0.287,-0.777 0.328,-0.278 0.328,-0.278 0.542,0.074 0.219,0 0.674,-0.606 0.674,-0.899 0,-0.158 0.161,-0.505 0.357,-0.771 0.234,-0.317 0.323,-0.618 0.259,-0.873 0.303,0.273 0.733,-0.566 0.637,-1.083 -0.298,-0.3 -0.324,-0.665 0.12,-0.563 0.161,0 0.205,-0.194 0.158,-0.692 0.06,-1.616 0.397,0.663 0.391,0.273 0.092,0 0.162,-0.318 0.157,-0.706 0.319,-0.982 0.557,0.401 0.706,-0.327 0.21,0.21 0.69,-0.401 0.611,-0.778 1.6,-1.087 1.6,-1.087 1.617,-0.634 0,0 1.378,-0.853 1.378,-0.853 0.758,-0.47 1.712,-1.004 2.119,-1.187 1.134,-0.511 2.33,-1.488 2.341,-1.915 1.283,0.148 2.271,-1.943 2.599,-1.031 0.545,-0.094 0.785,-0.394 0.713,-0.89 0.267,-1.257 0.512,0.869 0.65,-0.087 0.19,0.191 0.559,-0.245 0.768,-0.702 -0.105,0.404 -0.155,0.416 1.248,-0.317 0.571,-0.299 1.142,-0.543 1.269,-0.543 0.126,0 0.368,-0.155 0.539,-0.343 0.17,-0.189 0.554,-0.46 0.853,-0.602 0.795,-0.378 1.409,-1.001 1.897,-1.822 0.116,-0.139 0.501,-0.299 0.856,-0.356 0.387,-0.062 0.647,-0.197 0.647,-0.334 0.089,-0.216 0.798,-0.536 0.838,-0.632 0.691,-0.135 1.167,-0.32 1.167,-0.454 0,-0.082 0.118,-0.149 0.261,-0.149 0.144,0 0.636,-0.162 1.094,-0.36 0.761,-0.328 0.894,-0.339 1.535,-0.13 0.386,0.125 0.796,0.22 0.911,0.21 0.115,-0.01 0.209,0.107 0.209,0.261 0,0.322 0.474,0.772 0.984,0.935 0.194,0.061 0.352,0.181 0.352,0.266 0,0.084 0.256,0.261 0.569,0.392 0.537,0.225 1.436,1.296 1.436,1.712 0.318,0.356 0.722,1.484 0.746,1.72 -0.204,0.513 -0.198,1.023 0.019,1.442 -0.107,0.709 -0.115,1.717 -0.322,2.132 -0.288,0.044 -0.33,0.2 -0.356,1.338 -0.016,0.709 -0.118,1.397 -0.453,2.502 -0.252,0.267 -0.568,0.902 -0.72,1.446 -0.059,0.209 -0.286,0.422 -0.511,0.478 -0.223,0.057 -0.368,0.164 -0.322,0.238 0.15,0.243 -0.203,0.904 -0.819,1.538 -0.332,0.341 -0.603,0.737 -1.23,1.433 -0.19,0.161 -0.509,0.406 -0.71,0.544 -1.248,0.86 -1.698,1.248 -0.619,1.006 0.174,0 0.507,-0.151 0.741,-0.335 1.449,-0.447 -0.466,0.489 -0.276,0.394 -0.145,0.126 -0.789,0.509 -1.432,0.852 -0.642,0.343 -1.206,0.681 -1.253,0.751 -0.046,0.07 -0.897,0.558 -1.89,1.086 -0.993,0.527 -2.181,1.18 -2.639,1.451 -0.458,0.271 -0.867,0.493 -0.908,0.493 -0.241,0 -6.483,4.001 -7.93,5.083 -1.525,1.141 -4.017,3.36 -5.352,4.766 -1.196,1.26 -1.303,1.331 -2.168,1.446 -0.5,0.067 -0.986,0.178 -1.081,0.246 -0.094,0.069 -0.562,0.073 -1.039,0.009"
           stroke="#06aaba"
           fill="#06aaba"
           stroke-width="1" />
        <path
           id="92"
           d="m 64.203,160.851 c -0.296,-0.086 -0.618,-0.306 -0.716,-0.488 -0.133,-0.25 -0.35,-0.331 -0.881,-0.332 -1.102,0 -5.624,-1.271 -8.222,-2.311 -1.1,-0.44 -3.773,-1.74 -4.929,-2.397 -1.369,-0.778 -3.189,-2.171 -2.176,-2.336 -0.1,-0.188 -0.159,-0.508 -0.832,-1.187 0,-0.221 0.532,-0.443 0.86,-0.357 0.977,-0.798 -1.212,-0.798 -0.637,-1.09 -0.528,-0.344 -0.168,-2.362 0.384,-2.15 0.385,-0.179 1.263,-0.661 1.064,-0.56 0,-0.108 0.26,-0.143 0.669,-0.092 0.367,0.046 0.668,0.024 0.668,-0.05 0,-0.074 0.582,-0.155 1.295,-0.181 1.576,-0.056 2.374,-0.134 3.467,-0.336 0.459,-0.085 1.312,-0.119 1.894,-0.076 0.72,0.052 1.264,-0.005 1.695,-0.178 0.35,-0.14 0.925,-0.291 1.28,-0.334 0.354,-0.044 0.772,-0.13 0.928,-0.191 0.157,-0.061 0.382,-0.05 0.502,0.025 0.302,0.189 0.66,0.183 1.052,-0.019 0.184,-0.094 0.522,-0.18 0.752,-0.191 1.076,-0.05 2.774,-0.291 2.933,-0.416 0.098,-0.076 0.849,-0.099 1.671,-0.051 2.852,0.168 3.125,0.168 3.312,-0.008 0.204,-0.192 1.845,-0.195 3.249,-0.054 0.117,0.118 0.792,0.209 1.659,0.225 3.134,0.057 6.009,0.051 6.807,-0.013 0.46,-0.038 1.099,-0.09 1.421,-0.117 0.573,-0.048 0.585,-0.036 0.626,0.621 0.046,0.732 -0.084,0.926 -2.031,3.036 -0.543,0.588 -0.926,1.069 -0.85,1.069 0.128,0 2.474,-1.874 2.839,-2.268 0.092,-0.099 0.729,-0.704 1.415,-1.344 0,0 1.247,-1.163 1.247,-1.163 0,0 -1.037,1.194 -1.037,1.194 -4.494,5.173 -12.761,10.748 -19.083,12.869 -1.239,0.416 -2.275,0.823 -2.302,0.904 -0.027,0.08 0.198,0.226 0.499,0.323 0.679,0.218 0.25,0.239 -0.492,0.024"
           stroke="#04707c"
           fill="#04707c"
           stroke-width="1" />
        <path
           id="105"
           d="m 112.94,90.525 c -0.319,-0.256 -0.741,-0.576 -0.936,-0.712 -0.196,-0.135 -0.956,-0.708 -1.691,-1.273 -1.459,-1.122 -2.846,-1.959 -5.1,-3.079 -1.641,-0.815 -1.99,-1.108 -1.614,-1.356 0.384,-0.254 34.171,-0.12 34.426,0.136 0.202,0.203 0.275,0.549 0.912,2.073 0.493,0.546 0.138,0.907 -0.892,0.907 -0.738,0 -0.823,-0.034 -1.042,-0.223 0,0.245 -0.131,0.307 -0.648,0.307 -0.527,0 -0.671,-0.071 -0.767,-0.377 -0.113,-0.362 -0.122,-0.364 -0.229,-0.042 -0.085,0.26 -0.276,0.343 -0.843,0.369 -0.472,0.022 -0.862,0.156 -1.097,0.378 -0.441,0.415 -1.615,0.471 -1.929,0.091 -0.671,-1.079 -1.644,-0.043 -1.954,-0.874 -0.068,0.26 -0.229,0.29 -1.239,0.226 -0.639,-0.04 -1.265,-0.159 -1.391,-0.264 -0.162,-0.135 -0.247,-0.138 -0.289,-0.009 -0.103,0.31 -1.044,0.326 -1.172,0.02 -0.104,-0.248 -0.115,-0.247 -0.125,0.006 -0.016,0.38 -1.457,0.577 -2.265,0.31 -0.336,-0.111 -0.877,-0.149 -1.245,-0.087 -0.543,0.092 -0.663,0.06 -0.729,-0.195 -0.063,-0.245 -0.082,-0.231 -0.098,0.071 -0.03,0.592 -0.999,0.493 -1.234,-0.125 -0.08,-0.211 -0.098,-0.207 -0.109,0.022 -0.014,0.291 -0.478,0.474 -1.212,0.478 -1.32,-0.805 -1.32,0.059 -1.408,-0.57 -0.051,0.122 -0.338,0.139 -0.864,0.052 -0.434,-0.071 -0.878,-0.134 -1.351,-0.561 -0.019,0.277 -0.144,0.347 -0.65,0.364 -0.344,0.011 -0.902,0.071 -1.239,0.134 -0.552,0.103 -0.62,0.075 -0.687,-0.28 -0.111,-1.177 -0.099,0.583 -0.663,0.269 -0.299,-0.066 -1.101,-0.302 -1.784,-0.524 -0.682,-0.223 -1.391,-0.383 -1.575,-0.356 -0.272,0.041 -0.198,0.143 0.402,0.553 2.567,1.752 5.171,3.92 5.171,4.306 0,0.412 -0.16,0.381 -0.84,-0.165"
           stroke="#079fb4"
           fill="#079fb4"
           stroke-width="1" />
        <path
           id="path17"
           d="m 17.559,116.253 c -0.079,-0.207 -0.269,-0.677 -0.421,-1.044 -0.153,-0.367 -0.342,-1.083 -0.42,-1.592 -0.078,-0.508 -0.262,-1.362 -0.41,-1.896 -0.148,-0.535 -0.269,-1.086 -0.269,-1.225 0,-0.438 0.304,-0.086 0.415,0.481 0.109,0.555 0.621,2.224 1.028,3.353 0.126,0.347 0.228,0.786 0.228,0.976 0,0.23 0.092,0.326 0.278,0.289 0.174,-0.034 0.439,-0.502 0.71,-1.257 0.446,-1.242 0.809,-1.878 0.497,-0.872 -0.097,0.312 -0.236,0.793 -0.309,1.07 -0.261,0.98 -0.486,1.38 -0.829,1.47 -0.235,0.061 -0.315,0.178 -0.246,0.357 0.056,0.147 0.054,0.267 -0.004,0.267 -0.058,0 -0.169,-0.169 -0.248,-0.377"
           stroke="#038a98"
           fill="#038a98"
           stroke-width="1" />
        <path
           id="path18"
           d="m 58.127,96.899 c -0.303,-0.346 -0.612,-0.61 -0.686,-0.587 -0.073,0.023 -0.134,-0.055 -0.134,-0.174 0,-0.119 -0.152,-0.514 -0.338,-0.88 -0.291,-0.569 -0.302,-0.671 -0.084,-0.717 0.003,-0.68 0.218,-0.769 0.277,-1.106 -0.08,-0.049 -0.193,-0.39 -0.251,-0.756 -0.058,-0.366 -0.225,-0.733 -0.371,-0.815 -0.234,-0.131 -0.206,-0.29 0.245,-1.35 0.904,-2.132 1.759,-3.129 3.812,-4.45 1.563,-1.005 2.494,-1.398 4.229,-1.786 1.314,-0.293 2.183,-0.315 11.612,-0.298 5.605,0.011 10.022,0.052 9.816,0.092 -0.696,0.377 -0.281,1.084 -0.545,0.437 -0.118,-0.294 -0.252,-0.352 -0.686,-0.297 -0.297,0.038 -0.612,0.14 -0.699,0.228 -0.101,0.101 -0.32,0.098 -0.598,-0.009 -0.369,-0.142 -1.551,-0.103 -2.526,0.082 -0.609,0.116 -1.01,0.319 -0.988,0.501 0.079,0.642 -0.243,0.874 -0.396,0.285 -0.085,-0.324 -0.106,-0.322 -1.063,0.068 -0.699,0.285 -1.007,0.51 -1.086,0.791 -0.128,-1.013 -2.065,0.73 -2.419,0.094 -0.18,-0.181 -0.725,0.205 -0.632,0.448 -0.214,0.69 -0.622,-0.126 -0.836,-0.057 -0.029,-0.419 -0.99,-0.324 -1.183,0.118 -0.746,-0.466 -0.746,0.363 -0.921,0.042 0,-0.372 -0.629,-0.476 -0.947,-0.157 -0.097,0.098 -0.432,0.214 -0.743,0.256 -1.085,0.149 -1.317,0.242 -1.32,0.532 -0.002,0.23 -0.033,0.243 -0.148,0.059 -0.191,-0.302 -2.389,-0.104 -2.318,0.208 -1.069,0.38 -1.069,0.263 -1.478,0.697 0,0 -0.463,0.499 -0.463,0.499 -0.007,-0.935 -0.597,-0.419 -0.658,0.168 0,0 0.028,0.67 0.028,0.67 -0.129,-1.358 -1.335,-0.022 -1.299,0.067 -0.006,-0.056 -0.42,0.284 -0.92,0.754 -0.912,0.857 -1.219,1.55 -1.14,2.572 -0.152,0.736 -0.694,0.903 -0.601,1.202 -0.169,0.104 -0.224,0.468 -0.178,1.186 0.008,0.139 -0.036,0.44 -0.099,0.671 -0.063,0.23 -0.125,0.626 -0.647,1.047 0.155,0.446 -0.012,0.356 -0.618,-0.335"
           stroke="#04707c"
           fill="#04707c"
           stroke-width="1" />
        <path
           id="14"
           d="m 63.392,160.631 c -0.187,-0.13 -0.788,-0.319 -1.337,-0.419 -1.242,-0.226 -5.381,-1.386 -6.502,-1.822 -1.933,-0.752 -2.617,-1.06 -4.733,-2.126 -2.479,-1.249 -5.495,-3.405 -6.436,-4.601 -0.533,-0.677 -0.56,-0.763 -0.306,-0.953 0.225,-0.166 0.239,-0.25 0.072,-0.42 -0.115,-0.117 -0.209,-0.408 -0.209,-0.648 0,-0.239 -0.088,-0.524 -0.197,-0.633 -0.32,-0.321 -0.257,-2.928 -0.282,-3.813 -0.057,-0.058 0.166,-0.353 0.496,-0.657 0,0 0.601,-0.552 0.601,-0.552 0,0 9.34,-0.106 9.34,-0.106 24.33,-0.276 25.996,-0.313 27.885,-0.627 1.531,-0.253 4.714,-1.084 5.956,-1.554 0,0 1.11,-0.42 1.11,-0.42 0,0 -0.175,0.466 -0.175,0.466 -0.133,0.352 -0.416,0.561 -1.16,0.858 -1.13,0.45 -1.306,0.635 -0.893,0.937 0.279,0.205 0.274,0.247 -0.087,0.771 -0.21,0.305 -0.694,0.931 -1.077,1.392 -0.382,0.461 -0.836,1.057 -1.009,1.324 -1.054,1.139 0.683,-0.137 -0.159,0.688 -1.032,0.97 -3.02,2.596 -3.173,2.596 -0.076,0 0.307,-0.481 0.85,-1.069 1.947,-2.11 2.077,-2.304 2.031,-3.036 -0.041,-0.657 -0.053,-0.669 -0.626,-0.621 -0.322,0.027 -0.961,0.079 -1.421,0.117 -0.797,0.064 -3.688,0.07 -6.791,0.013 -0.827,-0.015 -1.547,-0.111 -2.596,-0.173 -0.482,-0.193 -2.122,-0.191 -2.328,0.002 -0.187,0.176 -0.46,0.176 -3.312,0.008 -0.822,-0.048 -1.573,-0.025 -1.671,0.051 -0.159,0.125 -1.857,0.366 -2.933,0.416 -0.23,0.011 -0.568,0.097 -0.752,0.191 -0.371,0.191 -0.694,0.193 -1.12,0.007 -0.156,-0.069 -0.362,-0.076 -0.458,-0.017 -0.096,0.06 -0.483,0.145 -0.861,0.191 -0.378,0.046 -0.973,0.198 -1.323,0.338 -0.431,0.173 -0.975,0.23 -1.695,0.178 -0.582,-0.043 -1.435,-0.009 -1.894,0.076 -1.093,0.202 -1.891,0.28 -3.467,0.336 -0.713,0.026 -1.295,0.107 -1.295,0.181 0,0.074 -0.301,0.096 -0.668,0.05 -0.409,-0.051 -0.669,-0.016 -0.669,0.092 0.241,-0.111 -1.035,0.556 -1.064,0.56 -0.552,-0.212 -0.912,1.806 -0.384,2.15 -0.481,0.943 1.301,0.943 0.637,1.09 -0.328,-0.086 -0.86,0.136 -0.159,0.832 -0.028,0.204 0.031,0.524 -0.769,0.694 -0.113,0.183 1.707,1.576 3.076,2.354 1.156,0.657 3.829,1.957 4.929,2.397 2.538,1.016 7.115,2.311 8.167,2.311 0.478,0.001 0.752,0.111 1.037,0.42 0.426,0.462 0.331,0.55 -0.196,0.18"
           stroke="#06626d"
           fill="#06626d"
           stroke-width="1" />
        <path
           id="path19"
           d="m 100.246,104.446 c -0.781,-0.12 -2.247,-0.251 -3.258,-0.292 -6.507,-0.266 -7.117,-0.314 -7.08,-0.555 0.117,-0.113 -1.555,-0.481 -2.074,0.024 -0.057,-0.057 -0.464,-0.126 -0.905,-0.153 -1.741,-0.107 -2.979,-0.298 -3.096,-0.476 -0.6,0.011 -1.395,-0.297 -1.592,-0.004 -0.189,0.285 -5.051,0.316 -5.054,0.032 -0.002,-0.142 -0.044,-0.155 -0.125,-0.038 -0.068,0.098 -0.452,0.196 -0.854,0.218 -0.583,0.031 -0.712,-0.011 -0.637,-0.207 -0.366,-0.409 -1.843,-0.409 -2.642,-0.103 0,0.198 -0.307,0.26 -1.498,0.301 -1.273,0.044 -1.531,0.008 -2.386,-0.047 -0.253,-0.063 -0.579,-0.222 -1.195,0.051 -0.153,0.248 -2.942,0.431 -3.602,0.237 -0.466,-0.138 -0.494,-0.197 -0.491,-1.006 0.002,-0.473 -0.058,-0.822 -0.132,-0.776 -0.075,0.046 -0.136,-0.257 -0.136,-0.675 0,-0.575 -0.055,-0.737 -0.23,-0.67 -0.17,0.066 -0.214,-0.04 -0.172,-0.408 0.037,-0.316 -0.043,-0.578 -0.22,-0.722 -0.458,0.624 -1.171,-0.398 -1.19,-0.644 -0.151,0 -0.158,-0.645 -0.009,-0.922 0.049,-0.092 0.096,-0.469 0.103,-0.838 0.009,-0.423 -0.015,-0.505 -0.063,-0.222 -0.042,0.247 -0.19,0.544 -0.329,0.66 -0.225,0.186 -0.24,0.022 -0.134,-1.454 0.066,-0.916 0.184,-1.69 0.263,-1.721 -0.321,-0.429 1.181,-0.697 0.76,-0.75 -0.056,-0.365 0.023,-0.534 0.353,-0.751 0.329,-0.216 0.441,-0.231 0.497,-0.063 0.094,0.283 0.705,-0.247 0.705,-0.611 0,-0.138 0.292,-0.636 0.648,-1.105 0.356,-0.469 0.735,-1.023 0.841,-1.23 0.654,-0.156 0.887,0.542 1.018,-0.159 0,-0.382 0.48,-0.766 1.637,-0.889 0.257,0 0.551,-0.083 0.652,-0.184 0.107,-0.107 0.393,-0.138 0.683,-0.075 0.868,1.277 0.868,0.276 1.435,0.868 0.046,-0.318 0.739,-0.944 1.044,-0.944 0.242,0.994 0.242,0.654 0.337,0.452 0.146,0.36 0.871,-0.124 1.064,-0.71 0.149,-0.451 0.278,-0.556 0.757,-0.612 0.521,-0.061 0.58,-0.026 0.6,0.359 0.022,0.407 0.027,0.409 0.097,0.041 0.073,-0.387 0.767,-0.783 1.127,-0.645 0.103,0.04 0.33,-0.032 0.505,-0.16 0.174,-0.128 0.566,-0.233 0.87,-0.233 1.655,0.132 1.883,0.132 2.547,-0.329 0.447,-0.24 1.18,-0.218 1.682,-0.148 0.137,-0.014 0.532,-0.06 0.877,-0.102 0.557,-0.069 0.626,-0.037 0.629,0.293 0.203,0.672 0.258,-0.733 0.728,-0.384 0.471,0 0.597,0.072 0.657,0.377 0.073,0.376 0.074,0.376 0.192,0.02 0.157,-0.469 0.545,-0.63 2.347,-0.973 0.827,-0.158 1.643,-0.413 1.813,-0.568 0.254,-0.229 0.704,-0.285 2.465,-0.301 1.33,-0.013 2.154,0.043 2.154,0.146 0.02,-0.17 0.904,0.211 0.898,0.097 0.177,-0.24 0.578,-0.284 2.777,-0.297 2.02,-0.012 2.63,-0.069 2.844,-0.264 0.209,-0.189 0.728,-0.248 2.182,-0.246 1.21,0.002 1.821,0.059 1.669,0.155 -0.378,0.24 -0.022,0.537 1.614,1.35 2.254,1.12 3.641,1.957 5.1,3.079 0.735,0.565 1.495,1.136 1.691,1.268 0.549,0.372 1.274,1.064 0.606,1.21 0,-0.077 -0.368,-0.341 -0.818,-0.587 -0.45,-0.245 -0.862,-0.562 -0.916,-0.704 -0.055,-0.142 -0.345,-0.361 -0.646,-0.488 -0.301,-0.126 -0.767,-0.433 -1.036,-0.683 -0.405,-0.376 -0.542,-0.421 -0.796,-0.262 -0.208,0.13 -0.405,0.139 -0.613,0.028 -0.858,-0.461 -4.371,-0.678 -7.288,-0.45 -0.827,0.064 -1.95,0.149 -2.496,0.187 -0.69,0.049 -1.038,0.154 -1.145,0.344 -0.111,0.201 -0.292,0.248 -0.678,0.175 -0.408,-0.077 -0.633,-0.007 -1,0.31 -0.386,0.332 -0.552,0.379 -0.888,0.251 -0.454,-0.173 -1.395,-0.215 -1.395,-0.062 0.592,0.203 -10e-4,1.114 -0.167,1.052 0,0.164 -0.688,0.396 -0.874,0.073 -0.216,0.236 -0.414,0.287 -0.791,0.205 -0.37,-0.082 -0.632,-0.019 -0.99,0.237 -0.268,0.191 -0.739,0.351 -1.047,0.355 -0.449,0.006 -0.629,0.119 -0.921,0.577 -0.399,0.629 -0.336,0.762 0.207,1.872 -0.26,-0.094 -0.764,0.201 -0.764,0.449 0,0.116 -0.089,0.301 -0.197,0.41 -0.299,0.3 -0.289,0.87 0.866,1.023 0.138,0.012 0.383,0.254 0.545,0.54 0.179,0.315 0.385,0.483 0.527,0.429 1.259,0.166 0.068,1.058 0.524,0.997 0.112,-0.043 0.474,0.169 0.804,0.472 0.399,0.367 0.829,0.583 1.285,0.644 0.376,0.051 0.829,0.223 1.006,0.384 0.177,0.16 0.321,0.215 0.321,0.121 0,-0.298 0.718,-0.149 0.763,0.158 0.044,0.306 0.867,1.073 1.505,1.405 0.449,-0.081 2.039,0.153 2.264,0.275 0.396,0.398 0.933,0.626 1.472,0.626 -0.051,0.825 0.472,0.825 0.613,1.144 -0.601,0.218 -0.836,0.7 -0.342,0.7 0.144,0 0.214,0.075 0.158,0.167 -0.057,0.092 -0.45,0.168 -0.874,0.168 -1.161,0 -0.792,0.139 1.134,0.428 1.81,0.272 1.9,0.298 1.804,0.531 -0.033,0.079 -0.699,0.046 -1.48,-0.073"
           stroke="#037e8c"
           fill="#037e8c"
           stroke-width="1" />
        <path
           id="path20"
           d="m 16.354,91.201 c -0.011,-0.069 -0.01,-0.184 0.002,-0.256 0.011,-0.072 -0.099,-0.364 -0.246,-0.649 -0.302,-0.586 -0.211,-1.492 0.184,-1.821 0.136,-0.113 0.247,-0.316 0.247,-0.452 0,-0.288 0.474,-1.166 0.835,-1.546 0.138,-0.145 0.627,-0.782 1.086,-1.417 0.724,-0.999 1.147,-1.36 3.174,-2.701 1.287,-0.851 5.148,-3.19 8.58,-5.196 4.861,-2.841 6.272,-3.596 6.384,-3.415 0.163,0.265 0.642,0.311 0.951,0.092 -0.196,0.146 1.214,-0.414 1.329,-0.381 0.145,0.146 -0.455,0.648 -1.213,1.015 -0.28,0.136 -0.649,0.402 -0.819,0.591 -0.171,0.188 -0.413,0.343 -0.539,0.343 -0.127,0 -0.698,0.244 -1.269,0.543 -1.403,0.733 -1.353,0.721 -1.457,0.358 0,0.416 -0.369,0.852 -0.559,0.661 -0.479,-0.469 -0.479,-0.469 -0.65,0.087 0.072,0.496 -0.168,0.796 -0.713,0.89 -2.115,-0.752 -2.115,1.297 -2.599,1.031 -0.011,0.427 -1.207,1.404 -2.341,1.915 -0.407,0.183 -1.361,0.717 -2.119,1.187 0,0 -1.378,0.853 -1.378,0.853 0.401,-1.086 -1.432,1.517 -1.617,0.634 0.079,0.377 -0.401,0.988 -0.611,0.778 -0.168,-0.199 -0.559,-0.199 -0.706,0.327 0.005,0.388 -0.065,0.706 -0.157,0.706 -0.053,-0.105 -0.395,-1.289 -0.391,-0.273 0.047,0.498 0.003,0.692 -0.335,0.425 -0.267,0.165 -0.241,0.53 0.057,0.83 0.17,1.021 -0.48,1.201 -0.637,1.083 0.064,0.255 -0.025,0.556 -0.259,0.873 -0.196,0.266 -0.357,0.626 -0.357,0.8 0,0.285 -0.473,0.87 -0.703,0.87 -0.323,-0.876 -0.61,-0.306 -0.513,-0.074 -0.204,0.078 -0.287,0.3 -0.287,0.763 0,0.358 -0.075,0.652 -0.167,0.652 -0.092,0 -0.176,-0.057 -0.187,-0.126"
           stroke="#079fb4"
           fill="#079fb4"
           stroke-width="1" />
        <path
           id="path21"
           d="m 17.895,114.452 c 0.044,-1.306 0.248,-2.144 0.634,-2.597 0.156,-0.185 0.429,-0.617 0.605,-0.961 0.176,-0.344 0.381,-0.564 0.455,-0.49 0.147,0.148 -1.277,4.685 -1.558,4.965 -0.119,0.118 -0.162,-0.168 -0.136,-0.917"
           stroke="#04707c"
           fill="#04707c"
           stroke-width="1" />
        <path
           id="98"
           d="m 84.558,148.42 c -0.013,-0.374 0.489,-1.056 2.483,-3.373 1.375,-1.598 2.609,-2.947 2.744,-2.999 0.134,-0.051 0.268,-0.257 0.298,-0.456 0.043,-0.282 0.65,-0.668 2.728,-1.733 3.704,-1.898 8.783,-4.798 8.89,-5.076 0.048,-0.127 0.436,-0.429 0.862,-0.671 0.997,-0.566 1.775,-1.038 4.533,-2.748 3.624,-2.247 7.015,-4.765 9.454,-7.02 0.904,-0.836 3.411,-3.674 3.411,-3.862 0,-0.076 0.382,-0.801 0.848,-1.61 1.039,-1.804 1.324,-2.474 1.324,-3.105 0,-0.277 0.108,-0.529 0.249,-0.583 0.295,-0.114 1.923,1.195 1.923,1.546 0,0.338 -0.462,0.29 -0.956,-0.1 -0.234,-0.184 -0.482,-0.335 -0.551,-0.335 -0.069,0 -0.175,0.333 -0.236,0.74 -0.062,0.411 -0.332,1.047 -0.607,1.428 -0.273,0.378 -0.697,1.097 -0.942,1.597 -0.244,0.5 -0.518,0.863 -0.609,0.807 -0.096,-0.06 -0.122,0.011 -0.061,0.169 0.12,0.316 -1.556,2.574 -1.861,2.507 -0.281,1.043 -0.947,0.732 -0.84,0.573 -0.029,0.768 -0.194,1.15 -0.375,0.865 -0.103,-0.164 -0.142,-0.132 -0.143,0.121 -0.004,0.447 -1.098,1.538 -1.224,1.22 -0.052,-0.131 -0.095,-0.079 -0.102,0.127 -0.013,0.327 -0.483,0.906 -0.737,0.906 -0.22,-0.307 -0.137,-1.306 -0.259,-0.411 -0.112,0.55 -1.002,1.431 -2.108,2.087 -0.609,0.36 -1.242,0.82 -2.768,2.011 -0.744,0.581 -0.791,0.584 -0.871,0.051 -0.09,1.152 -0.431,-0.221 -0.435,0.232 -0.022,0.593 -0.315,0.89 -0.531,0.539 -0.108,-0.177 -0.166,-0.154 -0.261,0.104 -0.23,0.624 -1.991,1.995 -3.718,2.203 -0.109,0.556 -0.723,1.156 -1.281,1.254 -0.99,0.527 -1.383,0.54 -1.712,0.782 -0.097,0.278 -0.332,0.59 -0.523,0.693 -0.696,-0.364 -0.209,-1.001 -0.503,-0.412 -0.083,0.184 -0.192,0.467 -0.243,0.628 -0.638,0.314 -0.398,-0.754 -0.604,0.01 0,0.268 -0.232,0.55 -0.757,0.921 -0.886,0.627 -0.982,0.649 -1.081,0.278 0,0.444 -0.543,0.858 -0.865,0.658 -0.076,0.726 -0.856,-0.223 -0.806,0.268 0,0.344 -0.143,0.584 -1.596,1.211 -0.505,0.507 -1.004,0.746 -1.829,0.874 0.234,0.091 -1.562,0.896 -1.415,0.949 -0.003,-0.129 -0.494,0.27 -1.091,0.887 -0.597,0.617 -1.089,1.024 -1.093,0.905 -0.003,-0.119 -0.108,0.019 -0.233,0.307 -0.125,0.288 -0.37,0.627 -0.543,0.754 -0.174,0.127 -0.488,0.477 -0.698,0.778 -0.211,0.3 -0.452,0.503 -0.537,0.451 -0.085,-0.053 -0.154,-0.011 -0.154,0.093 0,0.103 -0.2,0.451 -0.444,0.772 -0.328,0.431 -0.481,0.527 -0.582,0.366 -0.098,-0.154 -0.139,-0.114 -0.141,0.139 -0.003,0.416 -0.493,0.927 -0.521,0.543 -0.009,-0.126 -0.076,-0.041 -0.15,0.189 0,0 -0.134,0.419 -0.134,0.419 0,0 -0.016,-0.468 -0.016,-0.468"
           stroke="#099bb0"
           fill="#099bb0"
           stroke-width="1" />
        <path
           id="90"
           d="m 77.244,103.737 c -5.713,-0.053 -10.443,-0.152 -10.512,-0.22 -0.068,-0.069 0.152,-0.125 0.489,-0.125 0.587,0 0.693,-0.106 0.625,-0.628 -0.036,-0.277 0.15,-0.265 0.475,0.029 0.145,0.131 0.471,0.29 1.397,0.158 0.182,0.25 0.44,0.286 1.713,0.242 1.191,-0.041 1.498,-0.103 1.498,-0.301 1.07,-0.461 2.305,0.363 2.642,0.103 -0.075,0.196 0.054,0.238 0.637,0.207 0.402,-0.022 0.786,-0.12 0.854,-0.218 0.081,-0.117 0.123,-0.104 0.125,0.038 0.003,0.284 4.865,0.253 5.054,-0.032 0.278,-0.256 1.072,-0.024 1.592,0.004 0.117,0.178 1.355,0.369 3.096,0.476 0.441,0.027 0.848,0.096 0.905,0.153 1.383,-0.825 2.016,0.086 2.221,0.108 0.168,0.107 -0.189,0.149 -1.086,0.13 -0.736,-0.016 -6.011,-0.072 -11.725,-0.124"
           stroke="#037583"
           fill="#037583"
           stroke-width="1" />
        <path
           id="path22"
           d="m 79.367,153.826 c -0.004,-0.326 0.242,-0.615 1.071,-1.256 0.936,-0.724 1.08,-0.91 1.106,-1.42 0.304,0.116 0.304,0.116 0.472,-0.095 0.164,0.101 0.653,-0.409 0.52,-0.543 -0.046,-0.046 0.067,-0.105 0.251,-0.131 0.468,-0.066 1.361,-1.145 1.556,-1.882 0.166,-0.306 0.495,0.106 0.515,-0.219 0.028,0.384 0.518,-0.127 0.521,-0.543 0.002,-0.253 0.043,-0.293 0.141,-0.139 0.101,0.161 0.254,0.065 0.582,-0.366 0.244,-0.321 0.444,-0.669 0.444,-0.772 0,-0.104 0.073,-0.144 0.161,-0.089 0.089,0.055 0.331,-0.159 0.538,-0.475 0.52,-0.796 0.912,-1.026 1.023,-0.601 0.055,-0.052 -0.373,1.041 -0.385,1.247 -0.092,0.057 -0.167,0.409 -0.167,0.782 -0.322,1.04 -0.574,0.38 -0.845,1.095 -0.271,0.228 -0.503,0.54 -0.516,0.694 -0.013,0.153 -0.077,-0.024 -0.143,-0.392 0,0 -0.12,-0.671 -0.12,-0.671 0,0 -0.024,0.778 -0.024,0.778 -0.016,0.539 -0.104,0.81 -0.838,0.896 -0.132,0.62 -0.632,0.77 -0.737,0.221 -0.093,0.307 -2.238,2.146 -1.903,1.289 -0.168,0.765 -0.226,0.85 -0.394,0.582 -0.126,-0.199 -0.157,-0.179 -0.159,0.101 -0.002,0.359 -0.638,1.077 -0.953,1.077 -0.098,0 -0.271,0.112 -0.384,0.249 -0.114,0.137 -0.273,0.208 -0.355,0.158 -0.081,-0.051 -0.148,-0.012 -0.148,0.085 0,0.098 -0.086,0.178 -0.19,0.178 -0.105,0 -0.291,0.132 -0.413,0.293 -0.203,0.269 -0.222,0.258 -0.227,-0.131"
           stroke="#079fb4"
           fill="#079fb4"
           stroke-width="1" />
        <path
           id="95"
           d="m 84.452,147.025 c 0.171,-0.266 0.624,-0.86 1.006,-1.321 0.383,-0.461 0.871,-1.092 1.085,-1.403 0.352,-0.511 0.363,-0.58 0.113,-0.72 -0.435,-0.244 -0.329,-0.47 0.349,-0.749 0.345,-0.142 1.056,-0.475 1.581,-0.74 0.525,-0.265 0.996,-0.415 1.047,-0.332 0.192,0.311 -4.083,5.001 -5,5.486 0,0 -0.493,0.261 -0.493,0.261 0,0 0.312,-0.482 0.312,-0.482"
           stroke="#07575e"
           fill="#07575e"
           stroke-width="1" />
        <path
           id="path23"
           d="m 81.716,151.067 c -0.021,-0.426 0.176,-0.689 1.275,-1.708 0.715,-0.663 1.323,-1.138 1.353,-1.055 0.169,0.48 -0.979,1.99 -1.581,2.079 -0.171,0.025 -0.312,0.113 -0.313,0.197 -0.004,0.269 -0.267,0.578 -0.414,0.487 -0.078,-0.049 -0.177,0.045 -0.22,0.207 -0.044,0.172 -0.087,0.085 -0.1,-0.207"
           stroke="#099bb0"
           fill="#099bb0"
           stroke-width="1" />
        <path
           id="path24"
           d="m 62.654,102.787 c -1.483,-0.81 -2.955,-1.934 -3.809,-2.907 -0.478,-0.544 -0.869,-1.044 -0.869,-1.111 0,-0.066 -0.192,-0.373 -0.987,-1.803 -0.19,-0.308 -0.296,-0.61 -0.236,-0.67 0.06,-0.06 0.03,-0.109 -0.068,-0.109 -0.238,0 -0.376,-0.956 -0.394,-2.736 -0.013,-1.25 0.032,-1.515 0.625,-1.621 -0.183,0 -0.19,0.139 -0.036,0.746 0.104,0.41 0.242,0.8 0.308,0.865 -0.204,0.498 -0.291,0.702 -0.303,1.1 -0.218,0.046 -0.207,0.148 0.084,0.717 0.186,0.366 0.338,0.761 0.338,0.88 0,0.119 0.057,0.197 0.127,0.174 0.069,-0.023 0.415,0.26 0.768,0.629 0.843,0.663 0.638,0.132 1.052,0.125 0.013,-0.253 0.075,-0.649 0.138,-0.879 0.063,-0.231 0.107,-0.532 0.099,-0.671 -0.046,-0.718 0.009,-1.082 0.178,-1.186 -0.095,-0.472 0.564,-0.717 0.601,-1.202 -0.079,-1.022 0.228,-1.715 1.14,-2.572 0.5,-0.47 0.914,-0.81 0.92,-0.754 0.055,-0.694 1.33,-0.708 1.299,-0.067 0,0 -0.028,-0.67 -0.028,-0.67 0.54,-1.403 0.54,-0.407 0.658,-0.168 0,0 0.463,-0.499 0.463,-0.499 0.9,-0.676 0.626,-0.451 1.477,-0.702 -0.071,-0.308 2.131,-0.5 2.319,-0.203 0.115,0.184 0.146,0.171 0.148,-0.059 0.003,-0.29 0.235,-0.383 1.32,-0.532 0.311,-0.042 0.646,-0.158 0.743,-0.256 0.318,-0.319 0.947,-0.215 0.947,0.157 0.552,0.709 0.552,-0.712 0.921,-0.042 0.193,-0.442 1.154,-0.537 1.183,-0.118 0.451,0.312 0.676,0.308 0.836,0.057 -0.093,-0.243 0.452,-0.629 0.632,-0.448 2.29,0.318 2.29,-0.848 2.419,-0.094 0.079,-0.281 0.387,-0.506 1.086,-0.791 0.957,-0.39 0.978,-0.392 1.063,-0.068 0.153,0.589 0.475,0.357 0.396,-0.285 -0.022,-0.182 0.379,-0.385 0.988,-0.501 0.975,-0.185 2.157,-0.224 2.526,-0.082 0.278,0.107 0.497,0.11 0.598,0.009 0.087,-0.088 0.402,-0.19 0.699,-0.228 0.434,-0.055 0.568,0.003 0.686,0.297 0.258,1.088 0.122,-0.53 0.628,-0.451 0.738,-0.166 10.93,-0.324 12.334,-0.192 1.091,0.102 1.246,0.154 1.049,0.352 -0.176,0.177 -0.852,0.236 -2.809,0.248 -2.205,0.014 -2.607,0.057 -2.784,0.297 -0.184,0.091 -0.964,-0.24 -0.898,-0.097 0,-0.103 -0.824,-0.159 -2.154,-0.146 -1.761,0.016 -2.211,0.072 -2.465,0.301 -0.17,0.155 -0.986,0.41 -1.813,0.568 -1.802,0.343 -2.19,0.504 -2.347,0.973 -0.118,0.356 -0.119,0.356 -0.192,-0.02 -0.06,-0.305 -0.186,-0.377 -0.657,-0.377 -0.572,-0.195 -0.572,0.906 -0.728,0.384 -0.003,-0.33 -0.072,-0.362 -0.629,-0.293 -0.345,0.042 -0.74,0.088 -1.376,0.286 -0.003,-0.254 -0.736,-0.276 -1.183,-0.036 -0.707,1.383 -1.463,0.588 -2.547,0.329 -0.304,0 -0.696,0.105 -0.87,0.233 -0.175,0.128 -0.402,0.2 -0.505,0.16 -0.36,-0.138 -1.054,0.258 -1.127,0.645 -0.07,0.368 -0.075,0.366 -0.097,-0.041 -0.02,-0.385 -0.079,-0.42 -0.6,-0.359 -0.479,0.056 -0.608,0.161 -0.757,0.612 -0.193,0.586 -0.918,1.07 -1.064,0.71 -0.143,0.479 -0.387,0.08 -0.337,-0.452 -0.305,0 -0.998,0.626 -1.044,0.944 -1.041,-0.721 -0.926,0.103 -1.435,-0.868 -0.29,-0.063 -0.576,-0.032 -0.683,0.075 -0.101,0.101 -0.395,0.184 -1.448,0.402 -0.361,-0.095 -0.841,0.289 -0.841,0.671 -0.167,1.097 -0.71,-0.199 -1.018,0.159 -0.106,0.207 -0.485,0.761 -0.841,1.23 -0.356,0.469 -0.648,0.967 -0.648,1.105 0,0.364 -0.611,0.894 -0.705,0.611 -0.056,-0.168 -0.168,-0.153 -0.497,0.063 -0.33,0.217 -0.409,0.386 -0.353,0.751 0.373,0.075 -1.163,0.569 -0.76,0.75 -0.079,0.031 -0.197,0.805 -0.263,1.721 -0.106,1.476 -0.091,1.64 0.134,1.454 0.139,-0.116 0.287,-0.413 0.329,-0.66 0.048,-0.283 0.072,-0.201 0.063,0.222 -0.007,0.369 -0.054,0.746 -0.103,0.838 -0.149,0.277 -0.142,0.922 0.009,0.922 1.038,0.531 1.038,1.149 1.19,0.644 0.177,0.144 0.257,0.406 0.22,0.722 -0.042,0.368 0.002,0.474 0.172,0.408 0.175,-0.067 0.23,0.095 0.23,0.67 0,0.418 0.06,0.722 0.134,0.677 0.073,-0.046 0.129,0.264 0.125,0.688 -0.004,0.424 -0.083,0.79 -0.175,0.814 -0.092,0.023 -0.506,-0.143 -0.919,-0.369"
           stroke="#037583"
           fill="#037583"
           stroke-width="1" />
        <path
           id="path25"
           d="m 88.631,145.582 c -0.061,-0.242 -0.058,-0.606 0.006,-0.808 -0.013,-0.17 -0.191,-0.756 0.039,-0.705 0.036,0.11 0.549,-0.3 1.14,-0.91 0.591,-0.61 1.076,-1.003 1.079,-0.874 0.154,-0.138 1.62,-1.007 1.415,-0.949 0.825,-0.128 1.324,-0.367 2.924,-1.245 0.358,-0.256 0.501,-0.496 0.501,-0.84 0.108,-1.129 0.737,0.711 0.806,-0.268 0.322,0.2 0.865,-0.214 1.081,-0.736 -0.117,0.449 -0.021,0.427 0.865,-0.2 0.525,-0.371 0.757,-0.653 0.757,-0.921 0.203,-1.1 0.24,0.468 0.604,-0.01 0.051,-0.161 0.16,-0.444 0.243,-0.628 0.297,-1.006 0.064,0.502 0.503,0.412 0.191,-0.103 0.426,-0.415 0.523,-0.693 1.162,-0.417 1.162,-0.411 1.712,-0.782 0.558,-0.098 1.172,-0.698 2.102,-1.201 0.906,-0.261 2.667,-1.632 2.897,-2.256 0.095,-0.258 0.153,-0.281 0.261,-0.104 0.216,0.351 0.509,0.054 0.531,-0.539 -0.032,-0.987 0.463,1.062 0.435,-0.232 0.08,0.533 0.127,0.53 0.871,-0.051 1.526,-1.191 2.159,-1.651 2.768,-2.011 1.106,-0.656 1.996,-1.537 2.108,-2.087 0.125,-1.473 0.125,0.658 0.288,0.411 0.242,0 0.694,-0.597 0.708,-0.935 0.008,-0.202 0.046,-0.238 0.102,-0.098 0.126,0.318 1.22,-0.773 1.224,-1.22 0.001,-0.253 0.04,-0.285 0.143,-0.121 0.181,0.285 0.346,-0.097 0.375,-0.865 -0.169,-0.416 0.73,0.662 0.84,-0.573 0.305,0.067 1.981,-2.191 1.861,-2.507 -0.061,-0.158 -0.035,-0.229 0.061,-0.169 0.091,0.056 0.365,-0.307 0.609,-0.807 0.245,-0.5 0.669,-1.219 0.942,-1.597 0.275,-0.381 0.545,-1.017 0.607,-1.428 0.061,-0.407 0.167,-0.74 0.236,-0.74 0.069,0 0.327,0.159 0.573,0.353 0.246,0.194 0.587,0.317 0.757,0.272 0.222,-0.058 0.657,0.28 1.538,1.197 0,0 1.229,1.278 1.229,1.278 0,0 -1.183,-1.14 -1.183,-1.14 -1.037,-1 -1.21,-1.108 -1.4,-0.879 -0.119,0.144 -0.414,0.356 -0.655,0.472 -0.287,0.137 -0.456,0.369 -0.491,0.672 -0.327,0.358 -0.35,0.758 -0.465,1.141 -0.325,0.271 -0.291,0.539 0.101,0.785 0.649,0.407 0.225,1.353 -0.52,1.158 -0.277,-0.072 -0.586,0.148 -1.409,1.001 -1.051,1.092 -1.054,1.093 -1.221,0.666 -0.013,0.288 -0.138,0.618 -0.275,0.733 -0.138,0.114 -0.251,0.303 -0.251,0.419 0,0.116 -0.263,0.412 -0.585,0.658 -0.321,0.246 -0.585,0.541 -0.585,0.655 0,0.308 -1.583,1.816 -1.749,1.665 -0.078,-0.071 -0.087,-0.034 -0.02,0.083 0.072,0.125 -0.055,0.425 -0.307,0.725 -0.236,0.282 -0.43,0.576 -0.43,0.655 0,0.2 -0.489,0.67 -0.699,0.67 -0.046,-0.713 -0.178,-1.236 -0.301,-0.389 -0.002,0.375 -0.521,0.669 -0.836,0.473 -0.093,-0.057 -0.169,-0.038 -0.169,0.042 0,0.081 -0.3,0.317 -0.668,0.524 -0.367,0.207 -0.668,0.437 -0.668,0.511 0,0.074 -0.169,0.349 -0.375,0.612 -0.564,1.457 -0.481,-0.759 -0.608,0.175 -0.024,0.825 -0.219,1.018 -1.106,1.092 -0.688,0.057 -1.456,0.644 -1.656,1.266 -0.125,0.386 -1.047,1.013 -1.647,1.12 -0.805,0.143 -2.281,0.933 -3.127,1.63 -0.001,0.18 -0.309,0.368 -0.921,0.561 -0.517,0.163 -1.058,0.466 -1.895,0.679 -0.027,0.682 -0.349,1.053 -1.092,1.258 -0.172,0.047 -0.435,0.388 -0.585,0.756 -0.404,0.998 -0.491,1.084 -1.098,1.084 -0.4,0 -0.737,0.164 -1.201,0.583 -0.355,0.32 -0.697,0.584 -1.038,0.096 -0.02,0.353 -0.17,0.48 -0.853,0.727 -0.456,0.164 -0.871,0.43 -0.921,0.59 -0.195,0.617 -0.754,1.021 -1.411,1.021 -0.39,0 -0.731,0.107 -0.868,0.273 -0.47,-0.161 -0.503,-0.211 -0.909,0.192 -0.235,0.019 -0.573,0.114 -0.752,0.21 -0.316,0.169 -0.418,0.05 -0.341,-0.394 0.013,-0.076 -0.05,-0.093 -0.14,-0.037 -0.09,0.056 -0.12,0.217 -0.066,0.358 0.059,0.154 -0.046,0.358 -0.261,0.509 -0.197,0.139 -0.325,0.307 -0.283,0.374 0.041,0.068 0.01,0.228 -0.069,0.357 -0.11,0.179 -0.172,0.129 -0.255,-0.205"
           stroke="#079fb4"
           fill="#079fb4"
           stroke-width="1" />
        <path
           id="path26"
           d="m 73.43,162.204 c -2.605,-0.212 -5.623,-0.636 -7.184,-1.009 -1.935,-0.462 -2.107,-0.519 -2.052,-0.687 0.028,-0.083 1.065,-0.492 2.304,-0.908 4.342,-1.456 10.023,-4.737 13.968,-8.065 0.469,-0.396 0.901,-0.72 0.96,-0.72 0.059,0 0.103,0.208 0.098,0.461 -0.009,0.467 -0.019,0.476 -3.275,2.937 -0.468,0.354 -0.649,0.414 -0.752,0.252 -0.101,-0.161 -0.136,-0.147 -0.138,0.056 -0.002,0.258 -1.408,1.489 -1.7,1.489 0.005,-0.945 -0.741,-0.135 -0.68,0.071 0.048,0.342 -0.724,1.27 -1.056,1.27 -0.108,0 -0.395,0.156 -1.497,0.976 -0.23,0.275 -0.639,0.577 -1.561,0.448 -0.019,0.368 -0.16,0.579 -0.527,0.788 -0.206,1.153 1.403,1.15 0.981,1.181 0.02,-0.325 0.116,-0.377 0.691,-0.377 0.612,0 0.67,0.039 0.691,0.461 0.02,0.395 0.033,0.407 0.096,0.083 0.08,-0.418 0.33,-0.459 1.249,-0.203 0.46,0.128 0.61,0.255 0.591,0.502 -0.029,0.391 0.061,0.388 -2.794,0.078 -2.68,-0.29 -3.979,-0.321 -3.746,-0.087 0.235,0.236 3.523,0.639 7.004,0.86 4.884,0.309 10.525,-0.009 13.784,-0.778 0.597,-0.14 1.387,-0.324 1.754,-0.408 0.368,-0.084 0.998,-0.27 1.4,-0.414 0.844,-0.302 0.984,-0.322 0.764,-0.106 -0.276,0.27 -3.247,1.037 -5.672,1.465 -2.031,0.357 -2.967,0.42 -7.101,0.473 -2.619,0.034 -5.589,-0.006 -6.6,-0.089"
           stroke="#099bb0"
           fill="#099bb0"
           stroke-width="1" />
        <path
           id="path27"
           d="m 74.664,161.508 c -0.011,-0.121 -0.009,-0.309 0.005,-0.42 0.024,-0.194 -0.955,-0.551 -1.968,-0.26 -0.02,-0.421 -0.08,-0.461 -0.679,-0.461 -0.548,0 -0.669,0.062 -0.729,0.377 0.276,0.751 -0.983,-0.978 -0.955,-1.181 0.367,-0.209 0.508,-0.42 1.179,-0.565 0.27,-0.094 0.679,-0.396 1.769,-1.3 0.242,-0.191 0.529,-0.347 0.637,-0.347 0.332,0 1.104,-0.928 1.056,-1.27 0.066,-0.862 0.766,-0.455 0.68,-0.071 0.292,0 1.698,-1.231 1.7,-1.489 0.002,-0.203 0.037,-0.217 0.138,-0.056 0.103,0.161 0.292,0.09 0.77,-0.291 0.348,-0.278 0.709,-0.458 -0.011,0.421 0.097,0.253 -0.611,1.08 -0.924,1.08 -0.297,0 -0.398,0.072 -1.144,1.005 -0.054,0.231 -0.337,0.57 -0.628,0.754 -0.549,0.348 -0.689,0.587 -0.342,0.587 0.111,0 0.461,0.245 0.778,0.544 1.384,0.325 1.384,0.465 1.408,1.383 0,0 0.12,-0.67 0.12,-0.67 0.105,-0.592 0.12,-0.543 0.126,0.419 0.005,0.774 -0.031,0.968 -0.126,0.67 -0.103,-0.064 -0.937,0.905 -0.752,1.257 0,0 -1.044,0.052 -1.044,0.052 -0.77,0.038 -1.05,-0.006 -1.064,-0.168"
           stroke="#079fb4"
           fill="#079fb4"
           stroke-width="1" />
        <path
           id="path28"
           d="m 81.659,159.322 c 0,0 -0.069,-0.473 -0.069,-0.473 0,0 1.058,0.029 1.058,0.029 1.047,0.029 1.058,0.034 1.058,0.512 0,0.482 -0.002,0.483 -0.989,0.444 -0.945,-0.038 -0.992,-0.06 -1.058,-0.512"
           stroke="#079fb4"
           fill="#079fb4"
           stroke-width="1" />
        <path
           id="path29"
           d="m 43.273,149.854 c -0.197,-0.529 -0.419,-1.283 -0.492,-1.676 -0.198,-1.063 0.215,-2.893 1.046,-2.618 -0.34,0.521 -0.403,3.128 -0.083,3.449 0.145,0.435 0.534,1.77 0.457,1.624 -0.253,0.411 -0.59,0.128 -0.928,-0.779"
           stroke="#04707c"
           fill="#04707c"
           stroke-width="1" />
        <path
           id="path30"
           d="m 18.378,116.63 c 0,-0.092 -0.108,-0.167 -0.24,-0.167 -0.425,0 -0.461,-0.331 -0.052,-0.487 0.255,-0.097 0.465,-0.379 0.593,-0.795 0.109,-0.355 0.359,-1.173 0.556,-1.818 0.507,-1.664 1.811,-4.364 2.626,-5.442 0.382,-0.504 0.694,-1.005 0.694,-1.113 0,-0.211 0.371,-0.399 0.785,-0.399 0.141,0 0.631,0.275 1.09,0.613 2.583,1.901 9.105,4.35 13.35,5.013 2.925,0.456 5.287,0.491 29.928,0.448 15.825,-0.028 23.85,0.014 23.85,0.126 0,0.092 -0.258,0.167 -0.575,0.167 -0.316,0 -0.622,0.077 -0.679,0.17 -0.251,0.407 -1.255,0.584 -3.298,0.584 -1.171,0 -2.13,0.049 -2.13,0.108 -0.001,0.168 -1.234,0.28 -1.427,0.13 -0.095,-0.074 -0.26,-0.08 -0.367,-0.014 -0.228,0.142 -4.911,0.097 -5.377,-0.052 -0.395,0.073 -1.027,0.073 -1.151,-0.024 -0.134,0.083 -2.15,0.281 -3.479,0.341 -0.288,0.013 -0.626,0.106 -0.752,0.206 -0.144,0.114 -1.099,0.172 -2.568,0.156 -1.751,-0.019 -2.409,0.031 -3.42,0.236 -0.182,0.097 -1.185,0.13 -2.454,0.079 -2.591,-0.104 -2.516,-0.103 -4.035,-0.007 -0.959,0.061 -1.24,0.026 -1.313,-0.164 -0.113,-0.296 -0.39,-0.318 -0.39,-0.031 0,0.15 -0.344,0.204 -1.211,0.191 -0.667,-0.009 -1.35,0.053 -1.518,0.14 -0.42,-0.221 -1.639,-0.015 -1.783,10e-4 -0.181,-0.114 -0.513,-0.206 -0.739,-0.206 -0.225,0 -0.451,-0.066 -0.5,-0.147 -0.05,-0.08 -0.726,-0.18 -1.502,-0.22 -0.776,-0.041 -1.51,-0.157 -1.632,-0.257 -0.298,-0.245 -0.841,-0.32 -1.105,-0.154 -0.119,0.075 -0.307,0.062 -0.418,-0.029 -0.111,-0.091 -0.425,-0.14 -0.698,-0.109 -0.274,0.031 -0.587,-0.018 -0.696,-0.109 -0.129,-0.108 -0.233,-0.108 -0.299,0 -0.114,0.185 -1.262,0.055 -1.508,-0.17 -0.087,-0.08 -0.402,-0.146 -0.7,-0.146 -0.298,0 -0.582,-0.067 -0.633,-0.148 -0.05,-0.082 -0.863,-0.237 -1.806,-0.346 -2.302,-0.263 -2.322,-0.266 -4.137,-0.587 -1.726,-0.305 -1.928,-0.361 -5.513,-1.515 -2.74,-0.882 -6.581,-2.69 -7.518,-3.54 -0.795,-0.72 -1.124,-0.719 -1.427,0.008 -0.132,0.316 -0.313,0.621 -0.402,0.676 -0.33,0.204 -2.271,4.38 -2.847,6.122 -0.168,0.507 -0.385,1.148 -0.483,1.425 -0.099,0.276 -0.22,0.71 -0.27,0.963 -0.086,0.431 -0.42,0.664 -0.42,0.293"
           stroke="#099bb0"
           fill="#099bb0"
           stroke-width="1" />
        <path
           id="path31"
           d="m 88.551,141.975 c 0,-0.278 0.53,-0.879 0.775,-0.879 0.35,0 7.135,-3.501 9.999,-5.16 2.204,-1.276 2.596,-1.454 2.359,-1.068 -0.146,0.237 -5.772,3.402 -8.871,4.991 -2.062,1.058 -2.692,1.457 -2.761,1.752 -0.082,0.348 -0.542,0.71 -0.484,0.381 0.062,-0.353 -0.049,-0.384 -0.516,-0.142 -0.276,0.143 -0.501,0.2 -0.501,0.125"
           stroke="#04707c"
           fill="#04707c"
           stroke-width="1" />
        <path
           id="path32"
           d="m 78.345,159.915 c -0.007,-0.166 -0.032,-0.472 -0.055,-0.679 -0.035,-0.311 0.04,-0.377 0.421,-0.377 0.397,0 0.472,0.077 0.624,0.558 0.026,-0.513 0.051,-0.53 0.779,-0.53 0.739,0 0.751,0.009 0.751,0.554 0,0.652 -0.088,0.697 -1.462,0.742 -0.902,0.029 -1.046,-0.007 -1.058,-0.268"
           stroke="#079fb4"
           fill="#079fb4"
           stroke-width="1" />
        <path
           id="path33"
           d="m 36.636,73.778 c -0.118,-0.308 -0.008,-0.402 1.332,-1.135 0.62,-0.34 1.128,-0.53 1.128,-0.423 0,0.215 0.603,0.082 0.972,-0.214 0.302,-0.243 1.033,-0.256 1.033,-0.019 0,0.107 -0.291,0.241 -0.647,0.298 -0.355,0.057 -0.74,0.217 -0.856,0.356 -0.115,0.139 -0.32,0.253 -0.457,0.253 -0.152,0 -0.21,0.098 -0.152,0.251 0.064,0.165 -0.005,0.252 -0.199,0.252 -0.162,0 -0.376,0.08 -0.474,0.179 -0.098,0.098 -0.32,0.206 -0.493,0.238 -0.173,0.033 -0.314,0.072 -0.314,0.087 0,0.014 -0.176,0.046 -0.392,0.069 -0.215,0.024 -0.432,-0.063 -0.481,-0.192"
           stroke="#099bb0"
           fill="#099bb0"
           stroke-width="1" />
        <path
           id="path34"
           d="m 74.083,79.456 c 0.065,-0.107 0.284,-0.197 0.485,-0.2 0.351,-0.005 1.18,-0.491 0.857,-0.502 -0.086,-0.003 0.016,-0.15 0.226,-0.326 0.211,-0.176 0.399,-0.532 0.418,-0.791 0.019,-0.258 0.09,-0.512 0.158,-0.563 0.177,-0.132 0.534,-3.391 0.513,-4.683 -0.013,-0.819 -0.115,-1.255 -0.411,-1.759 -0.656,-1.12 -1.665,-2.43 -1.871,-2.43 -0.107,0 -0.401,-0.343 -0.654,-0.763 -0.253,-0.42 -0.523,-0.724 -0.601,-0.676 -0.734,-0.514 -0.956,-1.407 -1.026,-1.096 0,0.208 -1.048,-0.032 -0.339,-0.778 -0.009,-0.212 -0.395,-0.618 -0.887,-0.934 -0.26,-0.167 -0.447,-0.331 -0.414,-0.364 0.033,-0.033 0.682,0.161 1.442,0.43 3.428,1.217 6.266,3.022 7.419,4.719 0.696,1.025 1.467,3.186 1.466,4.107 -0.003,2.819 -1.624,5.139 -4.343,6.218 -1.111,0.44 -2.618,0.682 -2.438,0.391"
           stroke="#07575e"
           fill="#07575e"
           stroke-width="1" />
        <path
           id="path35"
           d="m 64.366,81.375 c 0.161,-0.123 0.293,-0.309 0.293,-0.414 0,-0.105 0.056,-0.173 0.125,-0.151 0.218,0.071 0.881,-0.483 0.751,-0.627 -0.068,-0.075 -0.039,-0.088 0.066,-0.028 0.338,0.193 0.637,-0.411 0.652,-1.315 0.009,-0.544 0.129,-1.057 0.313,-1.339 0.164,-0.252 0.321,-0.618 0.348,-0.815 0.393,-2.829 0.437,-3.601 -0.128,-3.457 -0.08,0 -0.123,-0.523 -0.095,-1.162 0.052,-1.223 -0.104,-1.725 -0.284,-0.91 -0.196,0.884 -0.247,0.823 -0.179,-0.216 0.054,-0.824 -10e-4,-1.144 -0.274,-1.592 -1.087,-0.012 -0.193,-1.519 -1.253,-1.16 -0.274,-0.171 -0.322,-0.339 -0.26,-0.895 -0.861,-0.815 -0.861,-0.823 -0.961,-1.42 0.143,-0.269 0.087,-0.399 -0.326,-0.748 -0.347,-0.292 -0.5,-0.573 -0.5,-0.914 0,-0.478 -0.348,-0.968 -0.546,-0.769 -0.054,0.054 -0.077,-0.041 -0.052,-0.211 0.043,-0.287 0.262,-0.309 3.121,-0.309 4.077,0 4.999,0.223 5.878,2.488 0.074,0.224 1.122,0.464 1.122,0.256 0.697,-0.637 0.697,1.017 1.026,1.096 0.078,-0.048 0.348,0.256 0.601,0.676 0.253,0.42 0.547,0.763 0.654,0.763 0.206,0 1.215,1.31 1.871,2.43 0.296,0.504 0.398,0.94 0.411,1.759 0.021,1.292 -0.336,4.551 -0.513,4.683 -0.068,0.051 -0.139,0.305 -0.158,0.563 -0.019,0.259 -0.207,0.615 -0.418,0.791 -0.21,0.176 -0.312,0.323 -0.226,0.326 0.264,0.009 -0.472,0.497 -0.758,0.502 -0.146,0.003 -0.485,0.11 -0.751,0.238 -0.267,0.128 -1.048,0.28 -1.736,0.34 -1.664,0.143 -4.23,0.673 -6.203,1.28 -1.777,0.546 -2.042,0.589 -1.611,0.261"
           stroke="#04707c"
           fill="#04707c"
           stroke-width="1" />
        <path
           id="path36"
           d="m 60.482,82.778 c 0,-0.17 0.132,-0.355 0.292,-0.409 0.389,-0.132 1.212,-0.868 1.212,-1.083 0,-0.094 0.102,-0.131 0.227,-0.083 0.142,0.055 0.332,-0.134 0.506,-0.501 0.153,-0.323 0.346,-0.63 0.429,-0.682 0.159,-0.098 0.417,-1.753 0.563,-3.501 -0.105,-0.648 0.309,-0.965 0.768,-1.111 0.147,0 0.204,-0.831 0.072,-1.045 -0.118,-0.191 -0.237,-1.026 -0.294,-2.055 -0.064,-1.159 -0.289,-1.99 -0.47,-1.735 -0.297,-0.059 -0.297,-1.442 -0.4,-1.167 0.157,-0.255 -0.395,-1.074 -0.656,-0.973 -0.125,0.047 -0.245,-0.111 -0.303,-0.398 -0.066,-0.334 -0.21,-0.495 -0.568,-0.88 0.282,0.094 0.093,-0.353 -0.417,-0.991 -0.525,-0.655 -1.333,-1.22 -1.503,-1.05 -0.045,0.046 -0.045,-0.112 0.001,-0.352 0.061,-0.32 -0.042,-0.565 -0.388,-0.927 -0.258,-0.271 -0.437,-0.501 -0.397,-0.511 0.04,-0.01 0.616,-0.108 1.28,-0.218 1.218,-0.203 1.828,-0.093 1.61,0.289 -0.063,0.109 -0.052,0.143 0.023,0.075 0.236,-0.215 0.585,0.227 0.585,0.742 0,0.341 0.153,0.622 0.5,0.914 0.413,0.349 0.469,0.479 0.326,0.748 0.861,1.043 0.861,0.781 0.961,1.42 -0.062,0.556 -0.014,0.724 0.26,0.895 1.332,-0.459 0.47,1.4 1.253,1.16 0.273,0.448 0.328,0.768 0.274,1.592 -0.068,1.039 -0.017,1.1 0.179,0.216 0.18,-0.815 0.336,-0.313 0.284,0.91 -0.028,0.639 0.015,1.162 0.466,0.314 0.194,0.704 0.15,1.476 -0.243,4.305 -0.027,0.197 -0.184,0.563 -0.348,0.815 -0.189,0.289 -0.305,0.798 -0.314,1.381 -0.014,0.863 -0.059,0.961 -0.672,1.478 -0.362,0.304 -0.717,0.517 -0.789,0.472 -0.073,-0.045 -0.134,0.017 -0.137,0.138 -0.003,0.12 -0.193,0.355 -0.422,0.522 -0.612,0.188 -0.58,0.101 -0.777,0.454 -0.119,0.002 -0.836,0.259 -1.595,0.573 -1.247,0.515 -1.378,0.54 -1.378,0.259"
           stroke="#037583"
           fill="#037583"
           stroke-width="1" />
        <path
           id="path37"
           d="m 54.133,85.731 c 0,-0.128 0.124,-0.281 0.276,-0.339 0.456,-0.176 1.896,-1.15 1.658,-1.881 0.282,-0.185 0.402,-0.388 0.572,-1.392 0,-0.293 0.119,-0.565 0.293,-0.667 0.206,-0.122 0.235,-0.211 0.098,-0.302 -0.249,-0.167 -0.086,-1.05 0.216,-1.166 1.413,-1.544 1.272,-2.652 1.378,-3.278 0.077,-0.207 0.108,-0.716 0.071,-1.131 -0.038,-0.415 -0.062,-0.97 -0.055,-1.234 0.007,-0.265 -0.049,-0.566 -0.123,-0.671 -0.075,-0.104 -0.16,-0.416 -0.189,-0.692 -0.029,-0.277 -0.116,-0.623 -0.194,-0.771 0.293,-0.566 -0.604,-1.889 -0.801,-2.13 0.044,-0.287 -0.701,-1.588 -1.268,-2.21 -0.143,0 -0.551,-0.264 -0.907,-0.587 -0.357,-0.322 -0.709,-0.586 -0.784,-0.586 -0.075,0 -0.291,-0.14 -0.481,-0.312 -0.19,-0.171 -0.666,-0.39 -1.059,-0.486 -0.594,-0.145 -0.82,-0.123 -1.337,0.131 -0.383,0.188 -0.646,0.239 -0.684,0.131 -0.087,-0.243 0.161,-0.376 2.15,-1.153 1.676,-0.653 5.213,-1.663 5.828,-1.663 0.498,0 1.245,0.922 1.15,1.42 -0.046,0.24 -0.046,0.398 -0.001,0.352 0.17,-0.17 0.978,0.395 1.503,1.05 0.51,0.638 0.699,1.085 0.508,1.338 0.267,0.038 0.411,0.199 0.477,0.533 0.058,0.287 0.178,0.445 0.303,0.398 0.261,-0.101 0.813,0.718 0.656,0.973 0.204,-0.293 0.353,1.248 0.4,1.167 0.181,-0.255 0.406,0.576 0.47,1.735 0.057,1.029 0.176,1.864 0.294,2.055 0.132,0.214 0.075,1.045 -0.221,1.68 -0.31,-0.489 -0.724,-0.172 -0.809,1.593 0.044,0.631 -0.214,2.286 -0.373,2.384 -0.083,0.052 -0.276,0.359 -0.429,0.682 -0.174,0.367 -0.364,0.556 -0.506,0.501 -0.125,-0.048 -0.227,-0.011 -0.227,0.083 0,0.215 -0.823,0.951 -1.212,1.083 -0.16,0.054 -0.292,0.234 -0.292,0.398 0,0.21 -0.333,0.438 -1.128,0.77 -0.62,0.259 -2.014,0.912 -3.097,1.45 -1.084,0.537 -2.005,0.978 -2.047,0.978 -0.042,0 -0.077,-0.105 -0.077,-0.234"
           stroke="#037e8c"
           fill="#037e8c"
           stroke-width="1" />
        <path
           id="path38"
           d="m 34.227,63.125 c 0.195,-0.239 0.178,-0.364 -0.117,-0.864 -0.209,-0.356 -0.278,-0.625 -0.177,-0.688 -0.264,-0.593 0.287,-0.394 0.635,-0.241 0.321,0 0.513,-0.608 0.36,-1.141 -0.118,-0.415 -0.101,-0.496 0.092,-0.422 0.499,0.192 0.735,-0.281 0.735,-1.474 0,-0.634 0.069,-1.153 0.154,-1.153 0.023,1.033 0.428,1.014 0.822,0.67 0.635,0 1.024,-0.469 1.05,-1.27 -0.08,-1.843 0.239,0.748 0.229,0.438 0,0 0.46,-0.58 0.46,-0.58 0.252,-0.319 0.46,-0.717 0.461,-0.883 0.002,-0.223 0.039,-0.245 0.141,-0.085 0.174,0.275 0.531,-0.104 0.569,-0.604 0.357,-0.389 0.488,-0.247 0.63,-0.831 0.181,-0.231 0.329,-0.673 0.329,-0.983 0.548,-1.313 1.146,-0.959 1.262,-1.542 -0.074,-0.232 0.044,-0.448 0.416,-0.762 0.286,-0.241 0.589,-0.438 0.674,-0.438 0.619,-2.126 0.619,0.594 0.812,-0.712 0.017,0.344 0.319,0.24 0.934,-0.321 0.358,-0.327 0.586,-0.695 0.597,-0.963 -0.191,-0.533 0.733,0.338 1.187,-0.141 0.204,0.043 0.226,-0.02 0.298,-0.838 -0.04,0.467 1.648,-0.476 2.591,-0.575 0.307,-0.14 0.423,-0.328 0.435,-0.708 0.874,-0.155 0.874,-0.155 1.395,-0.166 0.34,-0.086 0.43,-0.216 0.446,-0.649 -0.138,-0.684 0.764,0.783 0.977,0.234 0.22,-0.014 0.382,-0.202 0.487,-0.565 1.999,-0.707 1.999,-0.707 2.523,-0.372 0.325,-0.004 0.439,-0.116 0.524,-0.508 0.089,-0.416 0.111,-0.435 0.127,-0.11 0.019,0.37 0.066,0.386 0.814,0.286 0.436,-0.059 1.23,-0.117 1.764,-0.129 0.724,-0.018 1.009,-0.095 1.122,-0.306 -0.021,-0.59 0.224,-0.489 0.33,-0.196 0,0.283 0.382,0.301 6.641,0.323 3.653,0.012 6.806,-0.017 7.008,-0.064 2.407,-0.94 2.407,-0.149 2.541,-0.391 0.106,0.38 0.188,0.414 0.861,0.359 0.408,-0.032 0.798,-0.146 0.865,-0.251 -0.406,-0.168 1.266,0.437 1.298,0.228 0.046,0.019 0.91,0.046 1.921,0.061 1.708,0.025 1.846,0.003 1.947,-0.31 0.105,-0.328 0.109,-0.328 0.125,0.018 0.016,0.338 0.101,0.357 1.678,0.361 1.568,0.004 1.665,-0.016 1.731,-0.357 0.068,-0.347 0.072,-0.346 0.093,0.024 0.029,0.48 0.557,0.443 0.717,-0.049 0.101,-0.312 0.109,-0.31 0.125,0.042 0.014,0.324 0.109,0.377 0.673,0.377 0.484,0 0.676,-0.077 0.732,-0.293 -0.237,0.184 1.187,0.184 0.931,-0.015 0.018,0.247 0.304,0.275 2.609,0.251 1.596,-0.017 2.591,-0.091 2.593,-0.194 0.109,0.128 0.466,0.102 0.569,0.073 0.174,0.144 1.218,0.174 3.884,0.112 2.006,-0.046 4.375,-0.088 5.265,-0.093 1.541,-0.008 1.62,-0.026 1.785,-0.386 0.02,0.343 0.109,0.378 0.983,0.39 0.528,0.006 4.927,0.047 9.774,0.09 8.386,0.075 8.814,0.064 8.818,-0.221 0.005,-0.284 0.015,-0.285 0.176,-0.007 0.116,0.199 0.377,0.293 0.819,0.293 0.539,0 0.66,-0.063 0.816,-0.372 0.027,0.469 0.381,0.628 0.845,0.379 0.247,-0.133 0.347,-0.134 0.347,-0.004 0,0.116 0.409,0.172 1.128,0.154 0.62,-0.015 1.342,0.029 2.378,-0.056 0.002,0.122 0.568,0.185 1.673,0.185 1.292,-10e-4 1.671,-0.052 1.671,-0.227 1.967,0.048 1.967,-0.091 2.28,0.549 0.464,0.116 0.894,-0.182 0.894,-0.62 0,-0.284 0.042,-0.288 0.576,-0.065 0.316,0.133 0.675,0.203 0.796,0.156 0.281,-0.108 1.676,1.257 2.41,2.357 0.756,1.134 1.219,2.519 1.437,4.297 0.5,4.073 -1.604,7.887 -5.372,9.736 0,0 -1.1,0.54 -1.1,0.54 0,0 -42.354,0.115 -42.354,0.115 -41.914,0.114 -51.319,0.236 -54.801,0.713 -2.518,0.345 -5.251,0.97 -6.83,1.563 -0.234,0.087 -0.24,0.063 -0.044,-0.179"
           stroke="#06aaba"
           fill="#06aaba"
           stroke-width="1" />
        <path
           id="path39"
           d="m 38.428,112.162 c -4.894,-0.802 -11.365,-3.173 -13.966,-5.118 -1.136,-0.848 -1.602,-0.84 -2.039,0.035 -0.277,0.555 -1.538,2.274 -1.538,2.096 0,-0.077 0.194,-0.473 0.432,-0.88 0.238,-0.407 0.407,-0.762 0.376,-0.789 -0.031,-0.027 -0.545,-0.097 -1.143,-0.155 -1.123,-0.11 -1.859,-0.248 -3.212,-0.605 -0.435,-0.114 -0.991,-0.158 -1.236,-0.096 0,0 -0.445,0.112 -0.445,0.112 0,0 0.112,1.457 0.112,1.457 0,0 0.111,1.457 0.111,1.457 0,0 -0.339,-0.667 -0.339,-0.667 -0.357,-0.701 -0.973,-4.045 -1.092,-5.931 -0.038,-0.61 -0.03,-0.959 0.018,-0.775 0.205,0.78 0.245,0.842 0.392,0.605 0.101,-0.165 0.468,0.105 1.395,1.029 0.691,0.689 1.602,1.42 2.024,1.625 0.807,0.392 2.565,0.715 2.7,0.496 0.043,-0.071 0.506,-0.182 1.029,-0.248 0.918,-0.115 0.993,-0.164 2.211,-1.447 1.338,-1.409 3.829,-3.628 5.355,-4.769 1.447,-1.082 7.689,-5.083 7.93,-5.083 0.041,0 0.45,-0.222 0.908,-0.493 0.458,-0.271 1.646,-0.924 2.639,-1.451 0.993,-0.528 1.844,-1.016 1.89,-1.086 0.047,-0.07 0.611,-0.408 1.253,-0.751 0.643,-0.343 1.287,-0.726 1.432,-0.852 0.358,-0.123 1.123,-0.696 0.276,-0.394 -0.234,0.184 -0.567,0.335 -1.636,0.638 -0.184,-0.061 0.266,-0.449 1.514,-1.309 0.201,-0.138 0.52,-0.383 1.337,-1.097 0,-0.143 0.271,-0.539 0.603,-0.88 0.616,-0.634 0.969,-1.295 0.819,-1.538 -0.046,-0.074 0.099,-0.181 0.322,-0.238 0.225,-0.056 0.452,-0.269 0.511,-0.478 0.152,-0.544 0.468,-1.179 0.945,-2.419 0.11,-0.132 0.212,-0.82 0.228,-1.529 0.026,-1.138 0.068,-1.294 0.356,-1.338 0.494,-0.69 0.103,-1.835 0.322,-2.132 -0.217,-0.419 -0.223,-0.929 -0.019,-1.442 -0.49,-0.567 -0.49,-1.551 -0.746,-1.72 0,-0.416 -0.899,-1.487 -1.436,-1.712 -0.313,-0.131 -0.569,-0.308 -0.569,-0.392 0,-0.085 -0.158,-0.205 -0.352,-0.266 -0.51,-0.163 -0.984,-0.613 -0.984,-0.935 0,-0.154 -0.094,-0.271 -0.209,-0.261 -0.115,0.01 -0.525,-0.085 -0.911,-0.21 -0.641,-0.209 -0.774,-0.198 -1.535,0.13 -0.458,0.198 -0.95,0.36 -1.094,0.36 -0.143,0 -0.261,0.067 -0.261,0.149 0,0.133 -0.468,0.316 -1.153,0.452 -0.129,0.026 -0.285,0.13 -0.347,0.231 -0.063,0.101 -0.388,0.209 -0.724,0.239 -0.335,0.03 -0.705,0.131 -0.822,0.225 -0.388,0.312 -0.964,0.42 -0.961,0.181 0.003,-0.199 4.766,-2.982 7.265,-4.245 2.442,-1.234 4.284,-1.99 4.397,-1.807 0.081,0.132 0.299,0.098 0.737,-0.116 0.516,-0.252 0.743,-0.274 1.336,-0.129 0.393,0.096 0.869,0.315 1.059,0.486 0.19,0.172 0.406,0.312 0.481,0.312 0.075,0 0.427,0.264 0.784,0.586 0.356,0.323 0.764,0.587 1.151,1.008 0.323,0.201 1.068,1.502 1.024,1.789 0.828,0.539 0.828,1.812 0.801,2.13 0.078,0.148 0.165,0.494 0.194,0.771 0.029,0.276 0.114,0.588 0.189,0.692 0.074,0.105 0.13,0.406 0.123,0.671 -0.007,0.264 0.017,0.819 0.055,1.234 0.037,0.415 0.006,0.924 -0.071,1.131 0.046,0.879 -0.26,1.965 -1.378,3.278 -0.302,0.116 -0.465,0.999 -0.216,1.166 0.137,0.091 0.108,0.18 -0.098,0.302 -0.174,0.102 -0.293,0.374 -0.515,1.469 0.052,0.202 -0.068,0.405 -0.112,1.188 0,0.133 -1.44,1.107 -1.896,1.283 -0.152,0.058 -0.276,0.205 -0.276,0.327 0,0.122 -1.109,0.803 -2.464,1.514 -1.356,0.71 -2.991,1.574 -3.634,1.918 -0.644,0.345 -2.065,1.096 -3.16,1.671 -10.904,5.723 -17.455,10.184 -20.712,14.106 0,0 -0.788,0.948 -0.788,0.948 0,0 0.969,0.701 0.969,0.701 2.896,2.098 9.948,4.696 14.585,5.374 0.781,0.114 1.492,0.271 1.579,0.349 0.207,0.185 -0.329,0.149 -2.08,-0.138"
           stroke="#038a98"
           fill="#038a98"
           stroke-width="1" />
        <path
           id="path40"
           d="m 31.835,63.856 c -0.136,-0.221 1.049,-2.86 1.284,-2.86 0.071,0 0.111,-0.056 0.088,-0.125 -0.023,-0.07 0.167,-0.428 0.421,-0.796 1.39,-2.013 2.962,-4.462 3.463,-5.181 0,-0.72 4.425,-4.865 7.101,-6.653 4.373,-2.92 10.356,-5.275 15.789,-6.215 1.921,-0.332 75.969,-0.317 77.524,0.016 1.175,0.252 3.261,1.244 3.405,1.62 0.142,0.372 -0.172,0.439 -0.808,0.172 -0.553,-0.231 -0.593,-0.227 -0.593,0.058 0,0.438 -0.43,0.736 -0.894,0.62 -0.217,-1.486 -2.242,0.126 -2.28,-0.549 0,0.175 -0.379,0.226 -1.671,0.227 -1.105,0 -1.671,-0.063 -2.446,-0.031 -0.263,-0.069 -0.985,-0.113 -1.605,-0.098 -0.719,0.018 -1.128,-0.038 -1.128,-0.154 0,-0.13 -0.1,-0.129 -0.347,0.004 -0.456,0.245 -0.779,0.106 -0.967,-0.384 -0.02,0.324 -0.116,0.377 -0.683,0.377 -0.452,0 -0.713,-0.092 -0.83,-0.293 -0.161,-0.278 -0.171,-0.277 -0.176,0.007 -0.004,0.285 -0.432,0.296 -8.818,0.221 -4.847,-0.043 -9.24,-0.084 -9.762,-0.09 -0.847,-0.011 -0.957,-0.053 -1.117,-0.39 -0.022,0.363 -0.083,0.378 -1.652,0.386 -0.896,0.005 -3.27,0.047 -5.276,0.093 -2.666,0.062 -3.71,0.032 -3.884,-0.112 -0.248,0.084 -0.517,-0.025 -0.569,-0.073 -0.002,0.103 -0.994,0.178 -2.583,0.194 -2.277,0.024 -2.589,-0.006 -2.654,-0.251 -0.833,0.214 -0.833,0.192 -0.928,0.015 -0.015,0.227 -0.17,0.293 -0.688,0.293 -0.577,0 -0.671,-0.052 -0.685,-0.377 -0.016,-0.352 -0.024,-0.354 -0.125,-0.042 -0.157,0.483 -0.653,0.514 -0.742,0.046 -0.071,-0.366 -0.074,-0.367 -0.096,-0.021 -0.022,0.344 -0.101,0.361 -1.694,0.357 -1.586,-0.004 -1.671,-0.022 -1.687,-0.361 -0.016,-0.346 -0.02,-0.346 -0.125,-0.018 -0.101,0.313 -0.239,0.335 -1.947,0.31 -1.011,-0.015 -1.875,-0.042 -1.921,-0.061 -0.513,0.216 -1.6,-0.42 -1.298,-0.228 -0.067,0.105 -0.457,0.219 -0.865,0.251 -0.673,0.055 -0.755,0.021 -0.861,-0.359 -0.432,-0.099 -1.831,0.06 -2.532,0.388 -0.206,0.049 -3.364,0.079 -7.017,0.067 -6.259,-0.022 -6.641,-0.04 -6.641,-0.323 -0.253,-0.672 -0.324,0.03 -0.33,0.196 -0.113,0.211 -0.398,0.288 -1.122,0.306 -0.534,0.012 -1.328,0.07 -1.764,0.129 -0.748,0.1 -0.795,0.084 -0.814,-0.286 -0.016,-0.325 -0.038,-0.306 -0.127,0.11 -0.085,0.392 -0.199,0.504 -0.524,0.508 -1.165,-0.618 -1.839,1.41 -2.523,0.372 -0.105,0.363 -0.267,0.551 -0.487,0.565 -0.619,0.545 -1.04,-0.833 -0.977,-0.234 -0.016,0.433 -0.106,0.563 -0.446,0.649 -0.626,0.097 -1.447,0.165 -1.395,0.166 -0.012,0.38 -0.128,0.568 -0.435,0.708 -1.448,-0.258 -2.424,1.662 -2.591,0.575 -0.072,0.818 -0.094,0.881 -0.298,0.838 -1.171,0.389 -1.171,0.046 -1.187,0.141 -0.011,0.268 -0.239,0.636 -0.597,0.963 -0.615,0.561 -0.917,0.665 -0.934,0.321 -0.415,1.253 -0.724,-0.892 -0.812,0.712 -0.085,0 -0.388,0.197 -0.674,0.438 -0.372,0.314 -0.49,0.53 -0.416,0.762 -0.072,0.944 -1.027,0.558 -1.262,1.542 0,0.31 -0.148,0.752 -0.329,0.983 -0.221,0.964 -0.439,0.457 -0.63,0.831 -0.038,0.5 -0.395,0.879 -0.569,0.604 -0.102,-0.16 -0.139,-0.138 -0.141,0.085 -10e-4,0.166 -0.209,0.564 -0.461,0.883 0,0 -0.46,0.58 -0.689,0.172 -0.025,0.795 -0.413,1.24 -1.079,1.24 -0.774,0.733 -0.667,-0.216 -0.793,-0.67 -0.085,0 -0.154,0.519 -0.154,1.153 0,1.193 -0.236,1.666 -0.735,1.474 -0.193,-0.074 -0.21,0.007 -0.092,0.422 0.153,0.533 -0.039,1.141 -0.36,1.141 -0.812,-0.439 -0.678,0.019 -0.635,0.241 -0.101,0.062 -0.031,0.334 0.18,0.693 0,0 0.348,0.59 0.348,0.59 0,0 -0.362,0.386 -0.362,0.386 -0.534,0.57 -2.04,0.978 -2.264,0.614"
           stroke="#079fb4"
           fill="#079fb4"
           stroke-width="1" />
      </g>
    </g>
  </g>
</svg>
